<?xml version="1.0" encoding="UTF-8"?>
<svg version="1.1" xmlns="http://www.w3.org/2000/svg" width="1000" height="1000">
<path d="M0 0 C1.16468977 -0.00350607 2.32937954 -0.00701215 3.52936295 -0.01062447 C6.74006656 -0.0182837 9.95062137 -0.01710812 13.16132546 -0.01206893 C16.6628811 -0.00878291 20.16441323 -0.01710087 23.66596121 -0.02388728 C29.79582082 -0.03416625 35.92564886 -0.03703473 42.05551624 -0.03497505 C51.17133773 -0.03191958 60.2871244 -0.04026114 69.4029391 -0.0507243 C86.63356833 -0.07004957 103.86418565 -0.07569198 121.09482444 -0.07683842 C134.40387495 -0.07775814 147.7129208 -0.08187812 161.0219698 -0.08823967 C164.85547985 -0.09003481 168.68898991 -0.09181444 172.52249998 -0.09358943 C173.475574 -0.09403152 174.42864801 -0.09447362 175.41060306 -0.09492911 C202.2132262 -0.10723482 229.01584773 -0.11513052 255.81847382 -0.11424255 C256.82866175 -0.1142114 257.83884969 -0.11418024 258.87964938 -0.11414814 C263.99948443 -0.11398193 269.11931948 -0.11378385 274.23915453 -0.11357872 C275.25593737 -0.11353883 276.27272021 -0.11349894 277.32031466 -0.11345784 C279.37649721 -0.11337697 281.43267977 -0.11329337 283.48886232 -0.11320706 C315.47287839 -0.11198181 347.45685205 -0.12699102 379.44085598 -0.15435219 C415.3910381 -0.18509375 451.34119236 -0.20228342 487.29138845 -0.20042574 C491.127099 -0.20027649 494.96280954 -0.20017907 498.79852009 -0.20011711 C499.74293913 -0.2000938 500.68735816 -0.20007049 501.66039596 -0.20004648 C516.83831539 -0.19998501 532.0161979 -0.21274003 547.19410637 -0.22998164 C562.45693388 -0.24696073 577.71970756 -0.24889416 592.9825393 -0.235763 C602.04132696 -0.22838896 611.09995073 -0.23198541 620.15872092 -0.25164768 C626.22088097 -0.26369008 632.28292295 -0.26100955 638.34507769 -0.24670668 C641.79180139 -0.23897939 645.23820913 -0.23728712 648.68490995 -0.25362138 C667.31335214 -0.32469267 684.88687242 0.59904491 702.25360012 8.00726891 C703.49907619 8.52486778 703.49907619 8.52486778 704.7697134 9.0529232 C733.1310544 21.17986041 756.16943832 44.49358415 767.89031887 73.00726891 C774.29443321 89.3780839 777.04180669 105.34463362 777.00723457 122.9066925 C777.00898761 124.04464777 777.01074065 125.18260304 777.01254681 126.3550418 C777.01719662 130.16601981 777.01474391 133.97695949 777.01231289 137.78793907 C777.01362994 140.5487838 777.01644244 143.30962657 777.01917821 146.07047021 C777.02432257 152.07215472 777.02575109 158.07383116 777.0247221 164.07551765 C777.02319564 173.00061499 777.02736233 181.92570342 777.03259673 190.85079902 C777.0422639 207.72005441 777.04508073 224.58930676 777.04565378 241.45856459 C777.04611348 254.48736678 777.04817261 267.51616777 777.05135441 280.54496956 C777.05225197 284.29648252 777.05314178 288.04799549 777.05402929 291.79950845 C777.05425033 292.73217127 777.05447138 293.66483408 777.05469913 294.6257594 C777.06085275 320.85752113 777.06479975 347.08928244 777.06435585 373.32104492 C777.06434027 374.30989764 777.06432469 375.29875036 777.06430864 376.31756831 C777.06422554 381.32938066 777.06412649 386.34119301 777.06402393 391.35300536 C777.06399402 392.8460259 777.06399402 392.8460259 777.06396349 394.36920846 C777.06392306 396.38204281 777.06388126 398.39487716 777.0638381 400.4077115 C777.06322543 431.72003606 777.07073071 463.03234979 777.08441067 494.34467125 C777.09977724 529.53194081 777.10837654 564.71920325 777.10744745 599.90647638 C777.10737282 603.65987547 777.10732411 607.41327457 777.10729313 611.16667366 C777.10727565 612.55292424 777.10727565 612.55292424 777.10725781 613.96717987 C777.10722706 628.82778688 777.11360803 643.68838448 777.12222539 658.54898869 C777.13070972 673.48937634 777.13168572 688.42975023 777.12511607 703.37013896 C777.12142561 712.24065043 777.12323773 721.11112009 777.13305841 729.98162711 C777.13907062 735.91452871 777.13774918 741.8474001 777.13058791 747.78030033 C777.12671684 751.15564518 777.12701711 754.53084369 777.13404527 757.90619309 C777.19952583 791.59257643 777.19952583 791.59257643 772.56610012 806.00726891 C772.34881252 806.71061363 772.13152493 807.41395836 771.90765285 808.13861656 C765.76838975 827.5497497 755.79765275 843.47146208 741.87860012 858.25726891 C741.07035793 859.16219078 741.07035793 859.16219078 740.24578762 860.08539391 C721.31895339 880.43887393 691.97975303 891.22773726 664.87860012 893.25726891 C660.99847905 893.39011525 657.12248207 893.39528327 653.24034977 893.38869667 C652.10359289 893.3907493 650.96683601 893.39280194 649.79563195 893.39491677 C645.98869247 893.40056862 642.18178938 893.39913176 638.37484646 893.3977108 C635.61685226 893.39974684 632.85886038 893.40327031 630.10086763 893.4067142 C623.31727016 893.41427425 616.53368057 893.41648624 609.75007934 893.41704326 C601.62190553 893.41795888 593.49373897 893.42463229 585.36556829 893.43139008 C565.72218474 893.44743225 546.07880199 893.45335138 526.43541307 893.45813883 C517.13825709 893.46047661 507.84110173 893.46407946 498.54394624 893.46783421 C466.70332249 893.48066826 434.86269907 893.49138747 403.02207279 893.49483681 C401.02417674 893.49505844 399.0262807 893.49528022 397.02838465 893.49550216 C395.02573317 893.4957228 393.02308169 893.49594328 391.02043021 893.49616361 C387.00293867 893.49660615 382.98544713 893.49705327 378.96795559 893.49750328 C377.97185503 893.49761267 376.97575447 893.49772206 375.94946904 893.49783477 C343.65987245 893.5014644 311.37029833 893.51738166 279.08071034 893.54069364 C244.92238786 893.56530959 210.76407823 893.57901047 176.60574663 893.58020473 C172.85339919 893.58037617 169.10105177 893.5805916 165.34870434 893.58083916 C164.42480698 893.58089493 163.50090962 893.58095069 162.54901537 893.58100815 C147.70406943 893.58215707 132.85914661 893.59316546 118.01420847 893.60772621 C103.08270934 893.62211821 88.15123974 893.62531296 73.21973558 893.61728624 C64.35893169 893.6128427 55.49822335 893.61663929 46.63743209 893.63252474 C40.70589772 893.64232191 34.77442981 893.64105162 28.84289595 893.63108851 C25.47155937 893.62573033 22.1005529 893.62656649 18.72920866 893.63759723 C0.24358228 893.69422228 -18.32970255 893.38115629 -35.93389988 887.06976891 C-37.23315403 886.61803307 -37.23315403 886.61803307 -38.55865574 886.15717125 C-67.47764608 875.74665554 -91.80214252 853.50002626 -105.27618504 825.89105797 C-106.40216295 823.42801212 -107.46359373 820.94823595 -108.49639988 818.44476891 C-108.96058323 817.34660851 -108.96058323 817.34660851 -109.43414402 816.22626305 C-116.19384618 798.90900486 -116.71129903 781.45101101 -116.62906874 763.10007613 C-116.61788084 759.59449526 -116.63022121 756.08897645 -116.63937622 752.58340043 C-116.65220626 746.45739853 -116.65037695 740.33154173 -116.63859653 734.2055397 C-116.62112672 725.09576551 -116.62674541 715.98610421 -116.63676345 706.87632397 C-116.65391165 690.60211785 -116.64844266 674.32797932 -116.63340626 658.05377464 C-116.62033442 643.81349156 -116.61516239 629.57323188 -116.61772442 615.33294296 C-116.61788483 614.38692347 -116.61804525 613.44090397 -116.61821053 612.46621722 C-116.61887415 608.62567314 -116.61957657 604.78512907 -116.62033587 600.94458501 C-116.62735318 564.94935528 -116.61189058 528.95416675 -116.58571241 492.95894751 C-116.56259331 461.00067648 -116.55721198 429.04245071 -116.5674448 397.0841732 C-116.57004696 388.89800487 -116.57263201 380.71183654 -116.57504272 372.52566814 C-116.57534017 371.51775587 -116.57563762 370.5098436 -116.57594408 369.47138853 C-116.58356327 342.74009816 -116.57714307 316.00881147 -116.5663467 289.27752274 C-116.56519894 286.40040813 -116.56405576 283.52329351 -116.56291988 280.64617889 C-116.56216464 278.73770803 -116.56139899 276.82923718 -116.56062287 274.92076633 C-116.55497127 260.68964599 -116.55628991 246.45853737 -116.5608511 232.22741699 C-116.56596451 216.04367083 -116.56008088 199.85996846 -116.5399568 183.67623321 C-116.52899134 174.62569864 -116.5261579 165.57525019 -116.53524533 156.52471303 C-116.54048126 150.47212134 -116.53472434 144.41960304 -116.52019199 138.36702673 C-116.51222114 134.92347895 -116.50880869 131.48010466 -116.51876455 128.03655807 C-116.59137821 95.04922908 -109.64670198 66.91935545 -88.12139988 41.25726891 C-87.4536655 40.43742516 -86.78593113 39.61758141 -86.09796238 38.77289391 C-65.30253799 14.15790178 -31.86927532 -0.12335254 0 0 Z " fill="#000066" transform="translate(170.12139987945557,53.74273109436035)"/>
<path d="M0 0 C2.95977977 3.51737246 5.27643441 7.05683141 7.46875 11.09375 C7.94388535 11.96280975 7.94388535 11.96280975 8.42861938 12.84942627 C9.10535281 14.08808 9.77999361 15.32787897 10.45269775 16.56872559 C12.23682254 19.85873529 14.03715524 23.1398633 15.8359375 26.421875 C16.1942868 27.07657776 16.55263611 27.73128052 16.92184448 28.40582275 C19.92774926 33.88968546 23.00537667 39.32999448 26.125 44.75 C30.4456216 52.26431592 34.70917453 59.80833963 38.9375 67.375 C43.64729185 75.80270467 48.37295943 84.22103488 53.125 92.625 C53.65730225 93.56649902 54.18960449 94.50799805 54.73803711 95.47802734 C55.23956299 96.36441895 55.74108887 97.25081055 56.2578125 98.1640625 C56.72348633 98.99711914 57.18916016 99.83017578 57.66894531 100.68847656 C58.51430831 102.15654275 59.39574194 103.60485724 60.32324219 105.02246094 C61.4921875 106.8359375 61.4921875 106.8359375 63 110 C61.88314652 113.59743607 60.09884941 116.83343154 58.3125 120.140625 C57.78406494 121.1195874 57.25562988 122.0985498 56.71118164 123.10717773 C56.1464917 124.14430908 55.58180176 125.18144043 55 126.25 C54.41404053 127.32902588 53.82808105 128.40805176 53.22436523 129.51977539 C49.56107843 136.23155608 45.79291102 142.86306576 41.87426758 149.42822266 C36.30967516 158.77975239 31.07729402 168.32111129 25.77587891 177.82324219 C18.4340343 190.95660512 10.99093561 204.03287397 3.5168457 217.09130859 C-2.36316889 227.37097351 -8.17997496 237.68629391 -14 248 C-20.79826463 260.04725114 -27.61127008 272.08524828 -34.48291016 284.09082031 C-40.36291057 294.37070304 -46.17988537 304.68613515 -52 315 C-58.79826463 327.04725114 -65.61127008 339.08524828 -72.48291016 351.09082031 C-76.1535546 357.50813184 -79.80136662 363.93807587 -83.4375 370.375 C-83.97616699 371.32858398 -84.51483398 372.28216797 -85.06982422 373.26464844 C-87.82352539 378.14131934 -90.57463657 383.01944322 -93.32421875 387.8984375 C-96.01639628 392.67399872 -98.71616034 397.44519817 -101.42138672 402.21337891 C-102.48550411 404.09179461 -103.54697304 405.97171283 -104.60595703 407.85302734 C-106.12605485 410.55193832 -107.6555819 413.24528538 -109.1875 415.9375 C-109.64527832 416.75508789 -110.10305664 417.57267578 -110.57470703 418.41503906 C-111.65969011 420.3103469 -112.821974 422.16107781 -114 424 C-114.66 424 -115.32 424 -116 424 C-117.52352827 421.35921766 -119.047052 418.71843269 -120.57055664 416.07763672 C-121.91732423 413.74328358 -123.26415607 411.40896765 -124.61108398 409.07470703 C-128.02377298 403.16021511 -131.43539406 397.24511559 -134.84375 391.328125 C-144.51475762 374.54303106 -154.21415792 357.7739777 -164.07397461 341.09887695 C-165.27482172 339.06385179 -166.46832394 337.02468973 -167.66015625 334.984375 C-169.30714664 332.16496263 -170.98852052 329.36886134 -172.68359375 326.578125 C-173.53972743 325.13581115 -174.39521871 323.69311575 -175.25 322.25 C-175.86161987 321.26580078 -175.86161987 321.26580078 -176.4855957 320.26171875 C-177.578125 318.390625 -177.578125 318.390625 -179 315 C-177.87466569 311.34172758 -176.03669435 308.10742099 -174.1640625 304.78125 C-173.31932373 303.27630981 -173.31932373 303.27630981 -172.45751953 301.7409668 C-171.85278809 300.67144775 -171.24805664 299.60192871 -170.625 298.5 C-169.68116455 296.82321167 -169.68116455 296.82321167 -168.71826172 295.11254883 C-163.4011948 285.6786755 -158.0358671 276.27272385 -152.6484375 266.87890625 C-150.8239219 263.69248919 -149.00532152 260.50274055 -147.1875 257.3125 C-140.82713375 246.15385382 -134.43998564 235.01426902 -127.9375 223.9375 C-122.34020156 214.39632504 -116.94928691 204.75102698 -111.60522461 195.06616211 C-106.95150074 186.6542867 -102.1439512 178.34400734 -97.26953125 170.05859375 C-92.89736766 162.60135293 -88.67624257 155.06846433 -84.5 147.5 C-79.23699981 137.96644334 -73.85090441 128.51878728 -68.33984375 119.12670898 C-63.84632512 111.46518415 -59.40597778 103.77457761 -55 96.0625 C-54.66398773 95.47449615 -54.32797546 94.88649231 -53.98178101 94.28067017 C-48.64499241 84.93556052 -43.38534398 75.54839291 -38.14624023 66.14819336 C-33.64895427 58.10260173 -29.01368958 50.14386469 -24.34179688 42.19873047 C-19.06305198 33.18656505 -13.99486856 24.06372452 -8.97290039 14.90673828 C-6.15984587 9.79536651 -3.36430806 4.77028755 0 0 Z " fill="#FEFEFE" transform="translate(693,453)"/>
<path d="M0 0 C0.66 0 1.32 0 2 0 C3.52352827 2.64078234 5.047052 5.28156731 6.57055664 7.92236328 C7.91732423 10.25671642 9.26415607 12.59103235 10.61108398 14.92529297 C14.02377298 20.83978489 17.43539406 26.75488441 20.84375 32.671875 C26.86955329 43.13006324 32.91082033 53.57856374 39 64 C45.74701194 75.54729516 52.43339318 87.12902027 59.10888672 98.71777344 C62.23680148 104.14659942 65.36858448 109.57319281 68.5 115 C69.75001879 117.16665583 71.00001878 119.3333225 72.25 121.5 C73.178125 123.10875 73.178125 123.10875 74.125 124.75 C94.75 160.5 94.75 160.5 96.62524414 163.75048828 C97.87435518 165.91557071 99.12354129 168.08060982 100.37280273 170.24560547 C103.51202309 175.68615706 106.64990563 181.12747216 109.78515625 186.5703125 C115.83055159 197.06232094 121.89110219 207.54481676 128 218 C134.74701194 229.54729516 141.43339318 241.12902027 148.10888672 252.71777344 C150.61431646 257.06621101 153.12199404 261.41334713 155.63134766 265.75952148 C156.86916414 267.90605117 158.10454923 270.05398492 159.33740234 272.20336914 C162.26464255 277.30029745 165.21462026 282.37959629 168.24905396 287.4133606 C169.68501707 289.79868125 171.10765308 292.19181793 172.52929688 294.58569336 C173.54175337 296.27782587 174.57343389 297.95840861 175.60546875 299.63867188 C176.21132813 300.66154297 176.8171875 301.68441406 177.44140625 302.73828125 C178.25653687 304.08466675 178.25653687 304.08466675 179.08813477 305.45825195 C180 308 180 308 179.29174805 310.57763672 C178.65233276 311.77670654 178.65233276 311.77670654 178 313 C177.66516602 313.66749268 177.33033203 314.33498535 176.98535156 315.02270508 C176.6240918 315.68165771 176.26283203 316.34061035 175.890625 317.01953125 C175.47329102 317.78152832 175.05595703 318.54352539 174.62597656 319.32861328 C174.1719043 320.1482959 173.71783203 320.96797852 173.25 321.8125 C172.76756836 322.68632324 172.28513672 323.56014648 171.78808594 324.46044922 C166.88169589 333.29662406 161.78080699 342.01662282 156.66796875 350.734375 C152.93673988 357.09771106 149.24529867 363.48354061 145.5625 369.875 C144.94673096 370.94314941 144.33096191 372.01129883 143.6965332 373.11181641 C141.12167031 377.57937943 138.54812355 382.04769925 135.97558594 386.51660156 C134.61884742 388.87346291 133.26166779 391.23006924 131.90405273 393.58642578 C130.63453881 395.79006869 129.36576732 397.99413955 128.09790039 400.19873047 C124.46380304 406.50604177 120.76911153 412.77239786 117 419 C114.10596909 416.44084745 112.44606028 413.53055174 110.55859375 410.1796875 C110.23495346 409.60874359 109.91131317 409.03779968 109.5778656 408.44955444 C108.88596264 407.22785628 108.19623138 406.00492607 107.50848389 404.78088379 C106.06399259 402.21031986 104.60882617 399.64586208 103.15393066 397.08117676 C102.43036775 395.8056626 101.70730247 394.52986602 100.98474121 393.25378418 C98.32505297 388.55954413 95.62425687 383.892236 92.875 379.25 C92.0950202 377.93100844 91.31507295 376.61199763 90.53515625 375.29296875 C90.13441895 374.61540527 89.73368164 373.9378418 89.32080078 373.23974609 C78.42844146 354.76904287 67.74007199 336.17863523 57.04003906 317.59619141 C47.35904487 300.78319104 47.35904487 300.78319104 37.55639648 284.04101562 C34.12942102 278.23378298 30.75027079 272.39956185 27.37695312 266.56103516 C23.68593242 260.17597888 19.97052476 253.80540094 16.25 247.4375 C10.66858875 237.88174959 5.12999121 228.30193807 -0.39355469 218.71264648 C-4.57282865 211.46161698 -8.77714882 204.22572787 -13 197 C-21.0446582 183.23215182 -29.0029868 169.4148428 -36.95996094 155.59619141 C-46.84200833 138.42733782 -46.84200833 138.42733782 -56.85668945 121.33569336 C-57.56542578 120.13725587 -58.27018439 118.93645366 -58.97021484 117.73291016 C-59.68512269 116.52987177 -60.42723725 115.34275237 -61.18994141 114.16943359 C-62.83000908 111.56453774 -63.99510709 109.62531371 -64.01953125 106.50390625 C-62.61790741 103.06160402 -60.71666689 100.03271471 -58.6875 96.9375 C-57.76780591 95.50110324 -56.84991622 94.06354997 -55.93359375 92.625 C-55.45132324 91.86960937 -54.96905273 91.11421875 -54.47216797 90.3359375 C-51.9978688 86.40988535 -49.6257463 82.42369396 -47.25 78.4375 C-42.80669748 70.99869637 -38.32401039 63.58513935 -33.8125 56.1875 C-29.67733605 49.40571967 -25.55676718 42.61637963 -21.48291016 35.79760742 C-17.32359934 28.8478121 -13.09612765 21.93927168 -8.87109375 15.02929688 C-5.83796909 10.05948113 -2.85449991 5.07466651 0 0 Z " fill="#FEFEFE" transform="translate(329,459)"/>
<path d="M0 0 C1.91791595 -0.02527019 3.83643793 -0.01702039 5.75422287 0.01675987 C6.81119708 0.01163332 7.86817129 0.00650677 8.95717502 0.00122488 C12.51080506 -0.0086846 16.06274808 0.02438621 19.61622238 0.05713463 C22.15865158 0.05882647 24.70108371 0.05787827 27.2435112 0.0544796 C32.72322555 0.05311182 38.20239339 0.07016505 43.68199539 0.10390663 C51.6044611 0.15265882 59.52671952 0.16829418 67.44931898 0.17583458 C80.30292248 0.18896803 93.15629759 0.22890202 106.00977707 0.28565025 C118.49609356 0.34072015 130.98234803 0.38319272 143.46876144 0.40869713 C144.62315239 0.41106164 144.62315239 0.41106164 145.80086437 0.41347392 C149.66167182 0.42130412 153.52247972 0.42888637 157.38328791 0.43634534 C189.41520029 0.49855089 221.44683198 0.60423418 253.47852707 0.73828697 C252.02796496 4.46552414 250.37237755 7.78651103 248.31055832 11.21875572 C247.67247238 12.286744 247.03438644 13.35473228 246.37696457 14.45508385 C245.86794601 15.30187706 245.86794601 15.30187706 245.34864426 16.16577721 C243.52569548 19.19939625 241.71512447 22.24038387 239.90430832 25.28125572 C239.53262527 25.90499077 239.16094223 26.52872581 238.77799606 27.17136192 C235.11709307 33.32527799 231.54181773 39.52740897 227.97852707 45.73828697 C222.23484589 55.73957498 216.38478992 65.67308297 210.48756027 75.58447838 C203.86519063 86.73255381 197.39054712 97.96305187 190.94215012 109.21240807 C190.45915451 110.0459481 189.97615891 110.87948814 189.47852707 111.73828697 C189.16122981 112.60298198 188.84393255 113.46767698 188.51702023 114.35857487 C186.47852707 116.73828697 186.47852707 116.73828697 184.52454627 117.19551146 C181.80452573 117.37361581 179.12475072 117.37976661 176.39901352 117.33955956 C174.8270845 117.34596774 174.8270845 117.34596774 173.22339934 117.35250539 C169.69448847 117.36077366 166.16675315 117.33318561 162.6379509 117.30591393 C160.11537326 117.30450429 157.59279357 117.30529377 155.07021713 117.30812645 C149.63038484 117.30926686 144.19093444 117.29504067 138.75118065 117.26693726 C130.88626444 117.22633113 123.02149329 117.21328305 115.15648361 117.2069973 C102.39664319 117.19604953 89.63696242 117.16276238 76.87720871 117.11548424 C64.48105799 117.06960105 52.08495062 117.03420311 39.68873215 117.01294518 C38.92484945 117.01163156 38.16096675 117.01031794 37.37393609 117.00896452 C33.54182603 117.00243941 29.70971566 116.99612085 25.87760508 116.989905 C-5.9222047 116.938057 -37.72181402 116.84960751 -69.52147293 116.73828697 C-68.40439127 114.4941726 -67.28623912 112.2506024 -66.16746902 110.00732994 C-65.85317444 109.37566414 -65.53887985 108.74399834 -65.21506119 108.09319115 C-62.97745053 103.60938121 -60.64396629 99.20636328 -58.14647293 94.86328697 C-57.37293821 93.50266516 -56.59950347 92.14198649 -55.82616043 90.78125572 C-55.44169754 90.10755943 -55.05723465 89.43386314 -54.66112137 88.73975182 C-52.85039074 85.55972402 -51.06213344 82.36714374 -49.27147293 79.17578697 C-46.66036131 74.52967261 -44.04151102 69.88800152 -41.41600418 65.25000572 C-36.42245406 56.42851065 -31.4319261 47.60637362 -26.52147293 38.73828697 C-22.58801004 31.64093404 -18.62721986 24.55923341 -14.64647293 17.48828697 C-13.82469559 16.02262291 -13.82469559 16.02262291 -12.98631668 14.52734947 C-12.46424637 13.6018026 -11.94217606 12.67625572 -11.40428543 11.72266197 C-10.94425125 10.90507408 -10.48421707 10.08748619 -10.01024246 9.24512291 C-9.51894852 8.41786705 -9.02765457 7.59061119 -8.52147293 6.73828697 C-8.04270329 5.71146498 -7.56393364 4.68464298 -7.07065582 3.62670517 C-4.27347114 0.45728207 -3.95036684 0.30107852 0 0 Z " fill="#FEFEFE" transform="translate(506.5214729309082,330.2617130279541)"/>
<path d="M0 0 C2.57503715 0.00546354 5.1449821 0.07029647 7.71913612 0.13597441 C9.57235958 0.13936128 11.42559913 0.13745538 13.27881324 0.13066435 C18.30031635 0.12722495 23.31837063 0.19769828 28.33907282 0.28155184 C33.58928498 0.35663836 38.8395789 0.36362184 44.09024513 0.37785673 C54.02849406 0.41513479 63.96515639 0.51357805 73.90270704 0.63405061 C85.21802798 0.76824393 96.53342527 0.83417385 107.84934402 0.89439583 C131.12265717 1.01978182 154.39456259 1.23081091 177.66664588 1.49827909 C176.70746548 3.42734989 175.74706135 5.35581226 174.78613746 7.28401518 C174.25144309 8.35799244 173.71674871 9.4319697 173.16585147 10.53849173 C171.58832255 13.65290792 169.90836845 16.67133424 168.10805213 19.66234159 C167.48285682 20.70777128 166.85766151 21.75320097 166.21352088 22.83031034 C165.23125526 24.46032988 165.23125526 24.46032988 164.22914588 26.12327909 C162.80074065 28.50973661 161.37600042 30.89837157 159.95180213 33.28734159 C159.59248603 33.88943449 159.23316993 34.49152739 158.86296546 35.11186552 C155.23354715 41.20390244 151.69545569 47.34750447 148.16664588 53.49827909 C142.46812167 63.41921283 136.68084756 73.28407563 130.82289588 83.11156034 C130.22348182 84.11831816 129.62406776 85.12507597 129.00648963 86.16234159 C128.02024353 87.69146681 128.02024353 87.69146681 127.01407325 89.25148344 C125.04885653 92.51835523 123.85516412 95.77016132 122.6511277 99.38228178 C119.91852334 106.56865074 116.86616418 112.73178807 110.66664588 117.49827909 C99.04191488 122.30387016 84.14701178 120.35201428 71.89024866 119.93173361 C66.7434208 119.78083065 61.59619766 119.76753982 56.44749916 119.73912382 C46.71606463 119.66476738 36.99116557 119.46820218 27.26259923 119.22673607 C16.17997916 118.95768444 5.09703247 118.82633139 -5.98804462 118.70604563 C-28.77342681 118.45573767 -51.55302316 118.03411219 -74.33335412 117.49827909 C-72.84734098 112.84854846 -70.96545478 108.7715589 -68.52085412 104.56077909 C-67.71084108 103.14287729 -66.90095288 101.72490417 -66.09116662 100.30687284 C-65.43036095 99.15614286 -65.43036095 99.15614286 -64.75620568 97.98216581 C-62.11634755 93.37373811 -59.50834304 88.74725824 -56.89585412 84.12327909 C-56.33728722 83.13593779 -55.77872033 82.14859648 -55.20322716 81.13133574 C-51.48462648 74.55360441 -47.80160422 67.95721666 -44.14219201 61.34642363 C-40.19308191 54.22263209 -36.17786617 47.13664098 -32.16294396 40.04979277 C-28.35104184 33.31550756 -24.5728623 26.56359782 -20.84311974 19.78343534 C-20.12445024 18.48188773 -19.3870652 17.1904634 -18.62956631 15.91112471 C-17.24198841 13.4549151 -17.24198841 13.4549151 -16.20101368 10.50117445 C-12.58099296 2.20388078 -8.67986321 0.20359819 0 0 Z " fill="#FEFEFE" transform="translate(273.33335411548615,329.50172090530396)"/>
<path d="M0 0 C3.03270935 2.79648922 4.95748428 5.40998597 6.8125 9.0859375 C7.32385498 10.08681396 7.83520996 11.08769043 8.36206055 12.11889648 C8.90258057 13.19341064 9.44310059 14.2679248 10 15.375 C11.17134961 17.66629974 12.34455952 19.95664931 13.51953125 22.24609375 C14.10686035 23.39190918 14.69418945 24.53772461 15.29931641 25.71826172 C17.69010716 30.33167104 20.1784113 34.88765094 22.6875 39.4375 C28.24774941 49.54824098 33.64803993 59.74022585 39.03326416 69.94482422 C43.07156131 77.59664918 47.11677232 85.24384368 51.23046875 92.85546875 C51.55936096 93.46417816 51.88825317 94.07288757 52.22711182 94.70004272 C53.76387267 97.54207914 55.30444629 100.3819829 56.84912109 103.21972656 C57.3848877 104.20811523 57.9206543 105.19650391 58.47265625 106.21484375 C58.93937744 107.07198975 59.40609863 107.92913574 59.88696289 108.81225586 C61 111 61 111 62 114 C61.03466797 116.28637695 61.03466797 116.28637695 59.4921875 118.98828125 C58.9242749 119.9932666 58.3563623 120.99825195 57.77124023 122.03369141 C57.14548096 123.11569824 56.51972168 124.19770508 55.875 125.3125 C55.23699463 126.43317871 54.59898926 127.55385742 53.94165039 128.70849609 C49.32115535 136.79450507 44.59725493 144.81934094 39.83203125 152.82080078 C35.35247018 160.35423737 31.02914254 167.96959403 26.73193359 175.6081543 C21.56724229 184.78541345 16.30228033 193.90169222 11 203 C10.09024414 204.56137695 10.09024414 204.56137695 9.16210938 206.15429688 C5.11136022 213.10478471 1.05711548 220.05322654 -3 227 C-5.76676969 224.53443868 -7.34544895 221.84903314 -9.1171875 218.609375 C-9.71740723 217.51915039 -10.31762695 216.42892578 -10.93603516 215.30566406 C-11.25179504 214.72659302 -11.56755493 214.14752197 -11.8928833 213.55090332 C-13.22853578 211.1017229 -14.57547099 208.65881353 -15.92184448 206.21551514 C-16.61179576 204.96325959 -17.30118406 203.71069371 -17.99002075 202.45782471 C-21.1587242 196.6974868 -24.38250594 190.96911532 -27.625 185.25 C-28.15343506 184.31687988 -28.68187012 183.38375977 -29.22631836 182.42236328 C-30.28773376 180.54862859 -31.34949881 178.67509191 -32.41162109 176.80175781 C-35.08975136 172.07777642 -37.7641272 167.35167499 -40.4375 162.625 C-40.96553223 161.69196045 -41.49356445 160.7589209 -42.03759766 159.79760742 C-44.95777286 154.6323323 -47.86348085 149.45933106 -50.75390625 144.27734375 C-51.69182007 142.59680908 -51.69182007 142.59680908 -52.64868164 140.88232422 C-53.84892233 138.73002659 -55.04743517 136.57676415 -56.24389648 134.42236328 C-56.79247314 133.43864746 -57.3410498 132.45493164 -57.90625 131.44140625 C-58.42574219 130.50699707 -58.94523438 129.57258789 -59.48046875 128.60986328 C-60.87999522 126.20611361 -62.39371552 123.94276063 -63.96875 121.65234375 C-65.56324451 119.09522166 -65.9933058 118.18495829 -66.10546875 115.0859375 C-64.54004651 110.71603088 -62.51097273 106.70820629 -60.3125 102.625 C-59.82628174 101.71016846 -59.34006348 100.79533691 -58.83911133 99.8527832 C-53.42590229 89.7672816 -47.62670523 79.90908393 -41.80273438 70.05712891 C-39.41672581 66.01086681 -37.05417318 61.95115832 -34.69213867 57.89086914 C-25.30993158 41.76475195 -15.82809316 25.69803888 -6.25 9.6875 C-5.73614746 8.82672852 -5.22229492 7.96595703 -4.69287109 7.07910156 C-4.22187988 6.29374023 -3.75088867 5.50837891 -3.265625 4.69921875 C-2.85086914 4.00658936 -2.43611328 3.31395996 -2.00878906 2.6003418 C-1 1 -1 1 0 0 Z " fill="#FDFDFE" transform="translate(762,334)"/>
<path d="M0 0 C47.52 0 95.04 0 144 0 C142.64813799 3.37965503 141.50732719 6.02567788 139.671875 9.0546875 C138.97807739 10.20565918 138.97807739 10.20565918 138.27026367 11.37988281 C137.76857666 12.20327148 137.26688965 13.02666016 136.75 13.875 C136.22059814 14.74995117 135.69119629 15.62490234 135.14575195 16.52636719 C134.01315028 18.39657302 132.87873802 20.26568334 131.74267578 22.13378906 C130.03123709 24.94862378 128.32562862 27.76691804 126.62109375 30.5859375 C120.0679013 41.40569249 113.41156211 52.15542918 106.68310547 62.86694336 C101.49082807 71.1580547 96.45721919 79.53850956 91.44726562 87.94067383 C85.79433612 97.39851749 79.93956651 106.72011861 74 116 C71.02923174 113.21109077 68.84272487 110.42652052 66.71484375 106.95703125 C66.10777588 105.97484619 65.50070801 104.99266113 64.87524414 103.98071289 C64.23578857 102.93520264 63.59633301 101.88969238 62.9375 100.8125 C61.5817634 98.61915205 60.22498815 96.42644579 58.8671875 94.234375 C58.20428711 93.16251953 57.54138672 92.09066406 56.85839844 90.98632812 C54.47048306 87.14909994 52.03032057 83.34867377 49.5625 79.5625 C39.79047434 64.54554955 30.13868264 49.44926357 20.60473633 34.2800293 C17.66729617 29.61385881 14.69588588 24.97069699 11.703125 20.33984375 C10.95825911 19.1849437 10.21346737 18.02999582 9.46875 16.875 C8.01001038 14.61267399 6.54563145 12.35434332 5.078125 10.09765625 C4.418125 9.07414062 3.758125 8.050625 3.078125 6.99609375 C2.48418945 6.08013428 1.89025391 5.1641748 1.27832031 4.22045898 C0 2 0 2 0 0 Z " fill="#FDFDFE" transform="translate(437,450)"/>
<path d="M0 0 C43.23 0 86.46 0 131 0 C129.5660705 3.58482375 128.22791929 6.51440585 126.3046875 9.7890625 C125.49064453 11.1802832 125.49064453 11.1802832 124.66015625 12.59960938 C124.07105469 13.59798828 123.48195313 14.59636719 122.875 15.625 C121.94880859 17.2037793 121.94880859 17.2037793 121.00390625 18.81445312 C115.6874745 27.86517211 110.33002612 36.89172475 104.97094727 45.91723633 C100.55223293 53.36357839 96.16834564 60.82922425 91.8125 68.3125 C71.87361379 102.55210704 71.87361379 102.55210704 65 113 C61.13174159 109.59558253 59.0177196 105.78881766 56.625 101.3125 C55.74551614 99.69882369 54.86526256 98.08556673 53.984375 96.47265625 C53.2718457 95.16192139 53.2718457 95.16192139 52.54492188 93.82470703 C49.69368849 88.61156381 46.78137788 83.43253638 43.875 78.25 C43.26736816 77.16501221 42.65973633 76.08002441 42.03369141 74.9621582 C38.45114577 68.56991645 34.83659095 62.19820148 31.1875 55.84375 C28.08675317 50.41744305 25.04981573 44.95502312 22 39.5 C13.589287 24.45467708 13.589287 24.45467708 4.96484375 9.53125 C4.31644531 8.4278125 3.66804687 7.324375 3 6.1875 C2.4225 5.21167969 1.845 4.23585938 1.25 3.23046875 C0 1 0 1 0 0 Z " fill="#FDFDFE" transform="translate(198,450)"/>
<path d="M0 0 C4.25277234 3.84917004 6.77888102 7.76151715 9.4375 12.8125 C10.31525206 14.43492503 11.19560028 16.05594738 12.078125 17.67578125 C12.54798828 18.53896973 13.01785156 19.4021582 13.50195312 20.29150391 C16.14798359 25.07557528 18.92069415 29.78508183 21.6875 34.5 C28.53326477 46.18768601 35.30894402 57.91462722 42.06933594 69.65185547 C44.06627117 73.11492701 46.06773242 76.57534783 48.0703125 80.03515625 C48.74556772 81.20261149 49.42077973 82.37009171 50.09594727 83.53759766 C51.36364232 85.72927007 52.63228769 87.92039322 53.90209961 90.11083984 C54.4822583 91.11453613 55.06241699 92.11823242 55.66015625 93.15234375 C56.16168213 94.01851318 56.66320801 94.88468262 57.17993164 95.77709961 C59.84037983 100.48810921 62.40925525 105.2503013 65 110 C22.76 110 -19.48 110 -63 110 C-61.45460244 106.13650609 -59.88793449 102.87579302 -57.83203125 99.30078125 C-57.19378418 98.18735352 -56.55553711 97.07392578 -55.89794922 95.92675781 C-55.20289367 94.72195086 -54.5077414 93.51719971 -53.8125 92.3125 C-53.09105251 91.05711328 -52.36986506 89.80157708 -51.64892578 88.54589844 C-49.7949706 85.31879708 -47.93698535 82.09403586 -46.07781982 78.86993408 C-45.05233129 77.09079075 -44.02805128 75.31095951 -43.00439453 73.53076172 C-35.81282354 61.02424224 -28.57988594 48.5425412 -21.29760742 36.08862305 C-18.12218405 30.65375512 -14.96326453 25.2098389 -11.82421875 19.75390625 C-11.47747101 19.15146088 -11.13072327 18.5490155 -10.77346802 17.92831421 C-9.08303604 14.99061073 -7.39469183 12.05174774 -5.70898438 9.11132812 C-5.10763672 8.06525391 -4.50628906 7.01917969 -3.88671875 5.94140625 C-3.08560669 4.54450562 -3.08560669 4.54450562 -2.26831055 3.11938477 C-1 1 -1 1 0 0 Z " fill="#FDFDFE" transform="translate(511,771)"/>
<path d="M0 0 C5.1920263 -0.07495152 10.38372787 -0.12897508 15.57617188 -0.16479492 C17.33729549 -0.17974968 19.09838274 -0.20012096 20.859375 -0.22631836 C47.15900918 -0.6073642 47.15900918 -0.6073642 56 7 C62.11924332 13.29772125 64.39075222 17.25598192 64.2734375 26.1484375 C63.68963733 32.23663932 61.07050272 36.29663731 56.5625 40.3125 C53.86509543 42.49670927 50.9799671 44.22740967 48 46 C50.05689784 50.00290441 52.12152659 54.00177314 54.1875 58 C54.76564453 59.12535156 55.34378906 60.25070313 55.93945312 61.41015625 C60.3864401 71.96100649 60.3864401 71.96100649 67.8515625 79.92382812 C69.99191246 80.59880675 69.99191246 80.59880675 73 81 C73 82.32 73 83.64 73 85 C67.06 85 61.12 85 55 85 C53.71222656 82.41285156 52.42445313 79.82570313 51.09765625 77.16015625 C49.85375131 74.66455526 48.60916062 72.16929741 47.36450195 69.67407227 C46.49757189 67.93517279 45.63135902 66.19591556 44.76586914 64.45629883 C43.52416826 61.96081412 42.27992259 59.46661299 41.03515625 56.97265625 C40.64658951 56.19036148 40.25802277 55.40806671 39.85768127 54.60206604 C38.27204099 51.06963488 38.27204099 51.06963488 36 48 C31.05 47.67 26.1 47.34 21 47 C21.33 57.89 21.66 68.78 22 80 C25.3 80.33 28.6 80.66 32 81 C32 82.32 32 83.64 32 85 C21.44 85 10.88 85 0 85 C0 83.68 0 82.36 0 81 C4.455 80.01 4.455 80.01 9 79 C9 55.24 9 31.48 9 7 C6.03 6.01 3.06 5.02 0 4 C0 2.68 0 1.36 0 0 Z " fill="#F8F8FB" transform="translate(370,166)"/>
<path d="M0 0 C19.8 0 39.6 0 60 0 C60 7.26 60 14.52 60 22 C58.35 22 56.7 22 55 22 C54.90203125 21.16855469 54.8040625 20.33710938 54.703125 19.48046875 C54.55359375 18.39378906 54.4040625 17.30710938 54.25 16.1875 C54.11078125 15.10855469 53.9715625 14.02960938 53.828125 12.91796875 C53.2442518 9.92978735 53.2442518 9.92978735 51.109375 8.17578125 C47.50709586 6.16784418 44.51139174 5.83375525 40.45703125 5.68359375 C39.48999268 5.64548584 38.5229541 5.60737793 37.52661133 5.56811523 C36.30095459 5.52501221 35.07529785 5.48190918 33.8125 5.4375 C29.914375 5.293125 26.01625 5.14875 22 5 C22 16.22 22 27.44 22 39 C31.24 38.67 40.48 38.34 50 38 C50 40.64 50 43.28 50 46 C36.14 45.01 36.14 45.01 22 44 C22 55.88 22 67.76 22 80 C29.05375 79.7834375 29.05375 79.7834375 36.25 79.5625 C38.46638184 79.49784546 38.46638184 79.49784546 40.72753906 79.43188477 C41.89510742 79.39377686 43.06267578 79.35566895 44.265625 79.31640625 C45.45961914 79.27974854 46.65361328 79.24309082 47.88378906 79.20532227 C51.18074351 79.08105896 51.18074351 79.08105896 55 78 C56.485 69.09 56.485 69.09 58 60 C59.65 60 61.3 60 63 60 C63 68.25 63 76.5 63 85 C42.21 85 21.42 85 0 85 C0 83.68 0 82.36 0 81 C0.63808594 80.86722656 1.27617187 80.73445313 1.93359375 80.59765625 C3.17302734 80.33275391 3.17302734 80.33275391 4.4375 80.0625 C5.67306641 79.80146484 5.67306641 79.80146484 6.93359375 79.53515625 C8.97661204 79.19247006 8.97661204 79.19247006 10 78 C10.09432985 75.79132169 10.11742431 73.57958479 10.11352539 71.36889648 C10.11367142 70.67624695 10.11381744 69.98359741 10.1139679 69.2699585 C10.11326874 66.97030554 10.10547628 64.67073263 10.09765625 62.37109375 C10.09579208 60.78068588 10.09436817 59.19027743 10.09336853 57.59986877 C10.08954329 53.4060407 10.07971295 49.21224705 10.06866455 45.01843262 C10.05845057 40.74211086 10.05387094 36.46578356 10.04882812 32.18945312 C10.03809069 23.79295292 10.02101419 15.39648074 10 7 C6.7 6.34 3.4 5.68 0 5 C0 3.35 0 1.7 0 0 Z " fill="#F1F1F6" transform="translate(272,166)"/>
<path d="M0 0 C10.56 0 21.12 0 32 0 C32 1.65 32 3.3 32 5 C28.7 5 25.4 5 22 5 C22.01494731 12.52024228 22.0568626 20.0399389 22.13209057 27.55981255 C22.16620906 31.05265563 22.1914466 34.54506841 22.19555664 38.03808594 C22.20070088 42.06496911 22.24596639 46.09057363 22.29296875 50.1171875 C22.2890361 51.35612762 22.28510345 52.59506775 22.28105164 53.87155151 C22.4083253 61.52017362 23.43324415 67.68841156 28 74 C33.67942383 78.88113993 40.87870206 79.4274043 48.078125 79.33984375 C53.61425201 78.69593593 58.86252877 76.58419141 62.4765625 72.21484375 C65.20887193 67.58564324 66.12499149 63.62107837 66.11352539 58.33520508 C66.11344986 57.17422806 66.11337433 56.01325104 66.11329651 54.8170929 C66.10813522 53.56389755 66.10297394 52.31070221 66.09765625 51.01953125 C66.0962413 49.73640549 66.09482635 48.45327972 66.09336853 47.13127136 C66.08955405 43.72329759 66.07973291 40.31536657 66.06866455 36.90740967 C66.05842743 33.42851337 66.05386598 29.94961015 66.04882812 26.47070312 C66.03810967 19.64711788 66.02104609 12.82356099 66 6 C61.05 5.01 61.05 5.01 56 4 C56 3.01 56 2.02 56 1 C64.91 1 73.82 1 83 1 C83 1.99 83 2.98 83 4 C82.43410156 4.20496094 81.86820313 4.40992188 81.28515625 4.62109375 C80.18494141 5.02521484 80.18494141 5.02521484 79.0625 5.4375 C77.96615234 5.83775391 77.96615234 5.83775391 76.84765625 6.24609375 C75.01694322 6.85386948 75.01694322 6.85386948 74 8 C73.89794016 9.62419256 73.86430316 11.25274258 73.8581543 12.88012695 C73.85111984 13.92243973 73.84408539 14.9647525 73.83683777 16.03865051 C73.83059135 17.74621773 73.83059135 17.74621773 73.82421875 19.48828125 C73.80099617 21.89128457 73.7768779 24.29427936 73.75195312 26.69726562 C73.71700902 30.49102264 73.68759994 34.28447172 73.67407227 38.07836914 C73.65847015 41.7362244 73.61815275 45.39317013 73.57421875 49.05078125 C73.57612717 50.16689285 73.57803558 51.28300446 73.58000183 52.43293762 C73.44754683 61.0832806 72.06957038 70.23298421 66.875 77.4375 C58.0124174 85.3367584 48.33732536 86.5544578 36.96044922 86.13183594 C29.27328344 85.61489079 22.29775063 82.650934 17 77 C12.73970689 70.38700771 10.91250541 64.23628768 10.81054688 56.39941406 C10.78547058 54.75311005 10.78547058 54.75311005 10.7598877 53.07354736 C10.74631226 51.89943298 10.73273682 50.7253186 10.71875 49.515625 C10.70034058 48.30428894 10.68193115 47.09295288 10.66296387 45.84490967 C10.58427874 40.6631349 10.51628254 35.48123398 10.44775391 30.29931641 C10.39620302 26.51718364 10.33891022 22.73516874 10.28125 18.953125 C10.26767456 17.7709137 10.25409912 16.58870239 10.2401123 15.3706665 C10.22339478 14.28573914 10.20667725 13.20081177 10.18945312 12.08300781 C10.17692505 11.12324036 10.16439697 10.1634729 10.15148926 9.17462158 C10.24052283 7.02177029 10.24052283 7.02177029 9 6 C7.48530552 5.76807135 5.96245438 5.58784762 4.4375 5.4375 C3.61121094 5.35371094 2.78492188 5.26992187 1.93359375 5.18359375 C1.29550781 5.12300781 0.65742187 5.06242188 0 5 C0 3.35 0 1.7 0 0 Z " fill="#F3F3F8" transform="translate(639,166)"/>
<path d="M0 0 C2.625 2.125 2.625 2.125 4 4 C4 4.66 4 5.32 4 6 C4.66 6 5.32 6 6 6 C6 3.36 6 0.72 6 -2 C7.65 -2 9.3 -2 11 -2 C11 4.93 11 11.86 11 19 C9.35 19 7.7 19 6 19 C5.70867188 18.33613281 5.41734375 17.67226562 5.1171875 16.98828125 C2.04803747 10.37706185 -0.56254988 6.06786647 -7.35546875 2.90234375 C-12.56949166 1.1232606 -18.2700176 0.89479745 -23.421875 2.98046875 C-27.11826405 5.17267028 -29.42402629 6.90399104 -31 11 C-31.69784119 15.46293783 -31.38641734 19.08664992 -29.625 23.25 C-23.63155752 29.52884451 -15.58988837 31.4977298 -7.5 33.9375 C11.50245871 39.72286096 11.50245871 39.72286096 16.21875 48.46484375 C18.18331512 54.83985758 18.32412736 62.21427904 16.11328125 68.53515625 C14.90948622 70.61080284 13.64009293 72.25167759 12 74 C11.49210938 74.56203125 10.98421875 75.1240625 10.4609375 75.703125 C4.11957695 81.89421635 -3.3878088 83.14762169 -12 83.4375 C-21.29356993 83.21526246 -28.34962728 80.47985034 -35 74 C-35.33 73.34 -35.66 72.68 -36 72 C-36.33 75.3 -36.66 78.6 -37 82 C-38.98 82 -40.96 82 -43 82 C-43 73.42 -43 64.84 -43 56 C-41.35 56 -39.7 56 -38 56 C-37.6596875 56.78503906 -37.319375 57.57007813 -36.96875 58.37890625 C-33.30756443 66.31472072 -29.54835999 72.70761037 -21.2109375 76.15234375 C-14.59472445 77.8989596 -6.83573812 78.35116248 -0.31640625 76.0546875 C3.8272702 73.63690931 5.55483729 71.64906117 7 67 C7.72989058 61.72173867 7.725014 57.39824129 5.25 52.625 C0.10771651 47.62555772 -7.61121571 45.79490354 -14.24609375 43.56640625 C-33.90152123 36.9423212 -33.90152123 36.9423212 -38.5 29.375 C-41.16989088 23.36774552 -42.18395664 17.33584122 -40.421875 10.8828125 C-37.41731563 3.86306925 -31.51528392 -0.50274944 -24.625 -3.4375 C-15.58238947 -4.8406637 -8.15640243 -4.44894678 0 0 Z " fill="#F6F6F9" transform="translate(800,169)"/>
<path d="M0 0 C22.44 0 44.88 0 68 0 C68 7.59 68 15.18 68 23 C66.68 23 65.36 23 64 23 C63.01 18.05 62.02 13.1 61 8 C53.73571349 5.86344514 47.94782345 5.61137103 40 5 C40.33 29.42 40.66 53.84 41 79 C44.3 79.66 47.6 80.32 51 81 C51 82.32 51 83.64 51 85 C39.78 85 28.56 85 17 85 C17 83.68 17 82.36 17 81 C21.95 80.01 21.95 80.01 27 79 C27.33 54.58 27.66 30.16 28 5 C14.17881801 4.77555033 14.17881801 4.77555033 8 9 C5.68472408 13.05173285 5.46476174 17.42984293 5 22 C3.35 22.33 1.7 22.66 0 23 C0 15.41 0 7.82 0 0 Z " fill="#EDEDF4" transform="translate(539,166)"/>
<path d="M0 0 C9.9 0 19.8 0 30 0 C30 1.65 30 3.3 30 5 C26.37 5 22.74 5 19 5 C21.38675433 11.96530448 23.77691894 18.92941722 26.17281628 25.89158249 C27.28564765 29.1257494 28.39707902 32.36038223 29.50512695 35.59619141 C30.78420993 39.33125798 32.06971386 43.06409968 33.35546875 46.796875 C33.94016182 48.50855865 33.94016182 48.50855865 34.53666687 50.25482178 C37.08367576 57.62899452 39.914513 64.83454985 43 72 C48.54292133 56.47810377 54.0597815 40.94682837 59.45199585 25.37182617 C59.94162242 23.95932228 60.43284968 22.54737222 60.9256897 21.13598633 C61.61517189 19.15990903 62.29863164 17.18185103 62.98046875 15.203125 C63.37129639 14.07551758 63.76212402 12.94791016 64.16479492 11.78613281 C65.14357383 9.00582779 65.14357383 9.00582779 65 6 C61.7 5.67 58.4 5.34 55 5 C55 3.35 55 1.7 55 0 C63.25 0 71.5 0 80 0 C80 1.32 80 2.64 80 4 C79.071875 4.4125 78.14375 4.825 77.1875 5.25 C72.08289596 8.05252771 70.62302891 11.50378143 68.73046875 16.8828125 C68.31990234 18.04039062 67.90933594 19.19796875 67.48632812 20.390625 C67.05771484 21.62296875 66.62910156 22.8553125 66.1875 24.125 C65.73548116 25.40901448 65.28300382 26.69286763 64.83007812 27.9765625 C62.25530967 35.2957895 59.753934 42.63732239 57.34204102 50.01171875 C53.4730739 61.75616522 49.18929084 73.36694846 45 85 C41.7 85 38.4 85 35 85 C34.5373877 83.66227539 34.07477539 82.32455078 33.59814453 80.94628906 C29.49816372 69.09437307 25.38808515 57.24602682 21.26551819 45.40194702 C19.33377152 39.84905045 17.41064595 34.29349222 15.50897217 28.73022461 C14.81833345 26.71404175 14.12223261 24.69985815 13.42333984 22.68652344 C12.62054086 20.37296523 11.82733324 18.05604846 11.04541016 15.73535156 C10.69397949 14.73213867 10.34254883 13.72892578 9.98046875 12.6953125 C9.69067139 11.84984863 9.40087402 11.00438477 9.10229492 10.13330078 C7.78493494 7.58377886 6.42224714 6.50067315 4 5 C1.85266073 4.29485154 1.85266073 4.29485154 0 4 C0 2.68 0 1.36 0 0 Z " fill="#F0F0F6" transform="translate(162,166)"/>
<path d="M0 0 C10.56 0 21.12 0 32 0 C32 1.32 32 2.64 32 4 C28.7 4.66 25.4 5.32 22 6 C22.33 30.09 22.66 54.18 23 79 C27.455 79.99 27.455 79.99 32 81 C32 82.32 32 83.64 32 85 C21.44 85 10.88 85 0 85 C0 83.68 0 82.36 0 81 C4.455 80.01 4.455 80.01 9 79 C9.33 54.91 9.66 30.82 10 6 C6.7 5.67 3.4 5.34 0 5 C0 3.35 0 1.7 0 0 Z " fill="#EDEDF4" transform="translate(474,166)"/>
<path d="M0 0 C20.49032258 0 20.49032258 0 26 4 C30.56848644 8.6826986 31.16819477 12.41124081 31.25 18.8125 C31.27578125 20.01519531 31.3015625 21.21789062 31.328125 22.45703125 C30.863184 27.47728706 29.28969126 30.74516526 25.6875 34.25 C17.19239062 39.78169913 10.81754009 38 0 38 C0 25.46 0 12.92 0 0 Z " fill="#040468" transform="translate(391,171)"/>
<path d="M0 0 C0.99 0 1.98 0 3 0 C2.43543121 4.45843294 0.60191276 7.70286087 -1.75 11.4375 C-2.57005177 12.77149582 -3.38899334 14.10617453 -4.20703125 15.44140625 C-4.65385254 16.16730957 -5.10067383 16.89321289 -5.56103516 17.64111328 C-8.23456424 22.02381399 -10.83149542 26.45193666 -13.4375 30.875 C-13.99671143 31.8225415 -14.55592285 32.77008301 -15.13208008 33.74633789 C-16.75547103 36.49711644 -18.3778432 39.24849353 -20 42 C-20.43957031 42.74507813 -20.87914062 43.49015625 -21.33203125 44.2578125 C-26.70463213 53.36565019 -32.04507774 62.4921248 -37.375 71.625 C-37.97046631 72.64513184 -38.56593262 73.66526367 -39.17944336 74.71630859 C-39.74671143 75.68906738 -40.31397949 76.66182617 -40.8984375 77.6640625 C-41.43597656 78.58340576 -41.97351563 79.50274902 -42.52734375 80.44995117 C-43.80840602 82.66823622 -45.04407692 84.90527597 -46.2734375 87.15234375 C-48 90 -48 90 -50.25 90.9375 C-50.8275 90.958125 -51.405 90.97875 -52 91 C-50.63982097 87.385578 -49.02038074 84.11387007 -47.0859375 80.7734375 C-46.498125 79.75572266 -45.9103125 78.73800781 -45.3046875 77.68945312 C-44.66789063 76.59568359 -44.03109375 75.50191406 -43.375 74.375 C-42.70298459 73.21557616 -42.03111234 72.05606934 -41.359375 70.89648438 C-35.9724439 61.61205669 -30.4975571 52.38018741 -25.01025391 43.15478516 C-16.5187882 28.85960532 -8.24041087 14.44111607 0 0 Z " fill="#191974" transform="translate(756,337)"/>
<path d="M0 0 C1 3 1 3 -0.1171875 5.49829102 C-0.69726562 6.49014404 -1.27734375 7.48199707 -1.875 8.50390625 C-2.52364014 9.62506836 -3.17228027 10.74623047 -3.84057617 11.90136719 C-4.56019259 13.12185773 -5.28000526 14.3422326 -6 15.5625 C-6.7292378 16.81486752 -7.45749821 18.06780462 -8.18481445 19.32128906 C-9.69339217 21.91839235 -11.20728703 24.51228642 -12.72509766 27.10400391 C-14.91264457 30.84362031 -17.07544858 34.59703567 -19.23046875 38.35546875 C-19.9029696 39.52727683 -20.57549521 40.6990707 -21.24804688 41.87084961 C-21.88806641 42.98596924 -22.52808594 44.10108887 -23.1875 45.25 C-25.44218352 49.17635159 -27.7143377 53.09162579 -30 57 C-30.68956787 58.22299805 -30.68956787 58.22299805 -31.39306641 59.47070312 C-31.8163623 60.19708984 -32.2396582 60.92347656 -32.67578125 61.671875 C-33.03196533 62.29674805 -33.38814941 62.92162109 -33.75512695 63.56542969 C-35.34901581 65.40219982 -36.64026442 65.6285055 -39 66 C-37.5839494 62.21481268 -35.84578935 58.80250679 -33.83203125 55.30078125 C-33.19289795 54.18582275 -32.55376465 53.07086426 -31.89526367 51.92211914 C-31.20110033 50.71886013 -30.5068436 49.515655 -29.8125 48.3125 C-29.09910571 47.07103126 -28.38597453 45.82941129 -27.6730957 44.58764648 C-25.82302649 41.36706945 -23.96883877 38.14888427 -22.11340332 34.93139648 C-20.66131817 32.41249601 -19.2113601 29.89237427 -17.7613678 27.37226868 C-14.8482623 22.30999623 -11.93224866 17.24939923 -9.01171875 12.19140625 C-8.50084717 11.30654541 -7.98997559 10.42168457 -7.46362305 9.51000977 C-6.73912964 8.26755493 -6.73912964 8.26755493 -6 7 C-5.5047583 6.10917725 -5.0095166 5.21835449 -4.49926758 4.30053711 C-3 2 -3 2 0 0 Z " fill="#151572" transform="translate(488,807)"/>
<path d="M0 0 C0.99 0 1.98 0 3 0 C2.5047783 3.66464055 1.9791794 5.70832354 -1 8 C-1.99 8.33 -2.98 8.66 -4 9 C-2.80100302 5.9168649 -1.52299523 2.93720508 0 0 Z " fill="#1A1A75" transform="translate(453,864)"/>
<path d="M0 0 C0.33 0.99 0.66 1.98 1 3 C-0.8125 5.6875 -0.8125 5.6875 -3 8 C-3.66 8 -4.32 8 -5 8 C-3.8141763 4.62496331 -2.72426311 2.35277269 0 0 Z " fill="#141472" transform="translate(742,364)"/>
<path d="M0 0 C0.33 0.99 0.66 1.98 1 3 C-1.05233685 5.2477975 -2.00667261 6.0022242 -5 7 C-3.75023244 3.34683329 -3.32901247 2.21934164 0 0 Z " fill="#131371" transform="translate(709,421)"/>
<path d="M0 0 C0.33 0.99 0.66 1.98 1 3 C-0.375 4.5 -0.375 4.5 -2 6 C-2.66 6 -3.32 6 -4 6 C-2.25 1.125 -2.25 1.125 0 0 Z " fill="#1F1F78" transform="translate(721,400)"/>
</svg>
