<?xml version="1.0" encoding="UTF-8"?>
<svg version="1.1" xmlns="http://www.w3.org/2000/svg" width="2842" height="868">
<path d="M0 0 C3.94209538 1.31403179 4.30057532 2.78856653 6.30078125 6.37890625 C6.94088135 7.51537598 7.58098145 8.6518457 8.24047852 9.82275391 C8.93115234 11.06933594 9.62182617 12.31591797 10.3125 13.5625 C11.39580309 15.49299809 12.48243567 17.42159887 13.56907654 19.35021973 C14.30759806 20.66170266 15.04502577 21.97380211 15.78138733 23.28649902 C19.14080427 29.27251332 22.58883562 35.20459387 26.0625 41.125 C32.79372283 52.62775888 39.45656501 64.16924692 46.10888672 75.71777344 C49.23680148 81.14659942 52.36858448 86.57319281 55.5 92 C56.75001879 94.16665583 58.00001878 96.3333225 59.25 98.5 C60.178125 100.10875 60.178125 100.10875 61.125 101.75 C66.75 111.5 66.75 111.5 68.62524414 114.75048828 C69.87435518 116.91557071 71.12354129 119.08060982 72.37280273 121.24560547 C75.51202309 126.68615706 78.64990563 132.12747216 81.78515625 137.5703125 C87.83055159 148.06232094 93.89110219 158.54481676 100 169 C106.74701194 180.54729516 113.43339318 192.12902027 120.10888672 203.71777344 C123.23680148 209.14659942 126.36858448 214.57319281 129.5 220 C130.75001879 222.16665583 132.00001878 224.3333225 133.25 226.5 C133.86875 227.5725 134.4875 228.645 135.125 229.75 C155.75 265.5 155.75 265.5 157.62524414 268.75048828 C158.87435518 270.91557071 160.12354129 273.08060982 161.37280273 275.24560547 C164.51202309 280.68615706 167.64990563 286.12747216 170.78515625 291.5703125 C177.39927985 303.04936999 184.03995784 314.51202075 190.72412109 325.95043945 C195.70497418 334.4799223 200.65524998 343.02690133 205.5703125 351.59448242 C208.47580642 356.65490993 211.4040498 361.69545572 214.42578125 366.6875 C214.94760986 367.55850342 215.46943848 368.42950684 216.00708008 369.3269043 C216.97272628 370.93463021 217.94972612 372.53561447 218.94018555 374.12817383 C219.36211182 374.83482178 219.78403809 375.54146973 220.21875 376.26953125 C220.58935547 376.87385986 220.95996094 377.47818848 221.34179688 378.10083008 C222.26224191 380.75666908 221.80624127 382.32813324 221 385 C219.85522461 387.32641602 219.85522461 387.32641602 218.40234375 389.75390625 C217.85650635 390.67606934 217.31066895 391.59823242 216.74829102 392.54833984 C216.15072998 393.5430127 215.55316895 394.53768555 214.9375 395.5625 C213.6523941 397.73233205 212.3685913 399.90293628 211.0859375 402.07421875 C210.41401367 403.20907715 209.74208984 404.34393555 209.04980469 405.51318359 C205.6581684 411.26438539 202.36507818 417.0724024 199.0625 422.875 C197.71159316 425.24516588 196.3598489 427.61485331 195.0078125 429.984375 C194.50698151 430.86223412 194.50698151 430.86223412 193.99603271 431.75782776 C188.6520093 441.11942609 183.25202681 450.44887335 177.85888672 459.78222656 C175.36214225 464.10414567 172.86794412 468.42753086 170.37426758 472.7512207 C169.13391435 474.9011986 167.89287638 477.05078162 166.65112305 479.19995117 C163.71582484 484.28174659 160.78705733 489.36700437 157.87988281 494.4649353 C156.50413209 496.87653083 155.12488653 499.28611876 153.74536133 501.69555664 C152.77148182 503.3999055 151.80267435 505.10714938 150.83398438 506.81445312 C150.24423828 507.84376953 149.65449219 508.87308594 149.046875 509.93359375 C148.52963867 510.84165771 148.01240234 511.74972168 147.47949219 512.68530273 C146.14476761 514.77350796 144.83066332 516.34578204 143 518 C138.63141346 511.66496859 134.73389013 505.1628182 131 498.4375 C126.44743275 490.31054338 121.8326058 482.22567042 117.125 474.1875 C112.21965695 465.80890611 107.34485442 457.41372613 102.5 449 C97.69160872 440.65194352 92.86102883 432.3175166 88 424 C82.50054464 414.5900967 77.04550804 405.15529437 71.60546875 395.7109375 C67.42650872 388.4604851 63.22259494 381.22511731 59 374 C54.1389704 365.68248208 49.30858897 357.34794347 44.5 349 C37.37913592 336.63977482 30.19816622 324.31532673 23 312 C15.16342017 298.59241282 7.35721392 285.16840721 -0.39428711 271.71142578 C-4.57327594 264.46078014 -8.7773134 257.22527414 -13 250 C-18.49945536 240.5900967 -23.95449196 231.15529437 -29.39453125 221.7109375 C-33.57349128 214.4604851 -37.77740506 207.22511731 -42 200 C-46.8610298 191.68248174 -51.69136597 183.34791779 -56.5 175 C-61.58427313 166.17586247 -66.68534783 157.3618017 -71.8125 148.5625 C-72.40546875 147.54349609 -72.9984375 146.52449219 -73.609375 145.47460938 C-74.15722656 144.53552734 -74.70507812 143.59644531 -75.26953125 142.62890625 C-75.75010986 141.80463135 -76.23068848 140.98035645 -76.72583008 140.13110352 C-77.76699718 138.38970715 -78.87456125 136.68815812 -80 135 C-79.66342343 131.44653494 -78.60121921 128.95164574 -76.69140625 125.97265625 C-76.20124023 125.19656006 -75.71107422 124.42046387 -75.20605469 123.62084961 C-74.39249512 122.35446655 -74.39249512 122.35446655 -73.5625 121.0625 C-72.36901791 119.17057875 -71.17773809 117.27726703 -69.98828125 115.3828125 C-69.34455566 114.35833008 -68.70083008 113.33384766 -68.03759766 112.27832031 C-64.3686954 106.37537046 -60.81426815 100.40399116 -57.25 94.4375 C-55.70517379 91.85502142 -54.1594287 89.27309398 -52.61328125 86.69140625 C-52.22873779 86.04924667 -51.84419434 85.4070871 -51.44799805 84.74546814 C-47.46964299 78.106698 -43.45765879 71.48851625 -39.4375 64.875 C-39.09067169 64.30433807 -38.74384338 63.73367615 -38.38650513 63.14572144 C-36.28229762 59.68386997 -34.17704183 56.2226569 -32.0715332 52.76159668 C-28.77503726 47.34216937 -25.48084878 41.92134025 -22.1875 36.5 C-21.83371277 35.91773651 -21.47992554 35.33547302 -21.11541748 34.73556519 C-15.90487712 26.15866448 -10.7213954 17.56592431 -5.5769043 8.94921875 C-4.90655151 7.82773437 -4.90655151 7.82773437 -4.22265625 6.68359375 C-3.64656616 5.71764282 -3.64656616 5.71764282 -3.05883789 4.73217773 C-2.07923891 3.12962879 -1.04185888 1.56278832 0 0 Z " fill="#FFFFFF" transform="translate(248,260)"/>
<path d="M0 0 C0.66 0 1.32 0 2 0 C2.54188965 0.97102661 2.54188965 0.97102661 3.09472656 1.96166992 C9.35113205 13.16727551 15.61395839 24.36762017 22 35.5 C26.96312862 44.15414954 31.84937484 52.84968426 36.71655273 61.55810547 C42.23924018 71.43713252 47.80639914 81.29060036 53.38232422 91.13964844 C55.029707 94.0525275 56.673528 96.96739075 58.31640625 99.8828125 C59.13890869 101.34074219 59.13890869 101.34074219 59.97802734 102.828125 C61.06507251 104.75663917 62.15007712 106.68630514 63.23291016 108.6171875 C65.86146666 113.28874296 68.53730878 117.91781073 71.33203125 122.4921875 C71.85522949 123.35875977 72.37842773 124.22533203 72.91748047 125.11816406 C73.90498009 126.74676126 74.9071799 128.36656741 75.92626953 129.97558594 C76.57958252 131.05888184 76.57958252 131.05888184 77.24609375 132.1640625 C77.63466553 132.78748535 78.0232373 133.4109082 78.42358398 134.05322266 C79.49990476 137.68836957 77.24881394 140.5224835 75.58642578 143.71289062 C74.77407471 145.16985352 74.77407471 145.16985352 73.9453125 146.65625 C73.33695557 147.74993896 72.72859863 148.84362793 72.10180664 149.97045898 C71.44303527 151.14706459 70.78409558 152.32357597 70.125 153.5 C69.44185797 154.72397389 68.75883528 155.9480144 68.07592773 157.17211914 C62.65868276 166.87063853 57.16585543 176.52513995 51.63232422 186.15771484 C48.45779177 191.68537066 45.29013344 197.21695856 42.125 202.75 C41.78610748 203.34232422 41.44721497 203.93464844 41.09805298 204.54492188 C35.67864429 214.02103276 30.32640759 223.53327014 25.00390625 233.06420898 C19.40518837 243.08275754 13.70932157 253.0442014 8 263 C5.3732208 267.58231657 2.7480647 272.1655565 0.125 276.75 C-0.21446655 277.34313995 -0.55393311 277.93627991 -0.90368652 278.5473938 C-5.69401948 286.92081511 -10.42923638 295.32306529 -15.125 303.75 C-19.61470574 311.80714687 -24.19831015 319.80002313 -28.875 327.75 C-34.10735579 336.65046751 -39.15857359 345.63716493 -44.125 354.6875 C-50.10511584 365.58417069 -56.1833352 376.4168041 -62.38378906 387.18994141 C-65.55588482 392.70517134 -68.71615533 398.22717354 -71.875 403.75 C-72.21398315 404.34250549 -72.55296631 404.93501099 -72.90222168 405.54547119 C-78.3215466 415.02139508 -83.67369175 424.53344801 -88.99609375 434.06420898 C-94.59481163 444.08275754 -100.29067843 454.0442014 -106 464 C-108.62677914 468.58231646 -111.25207997 473.16547378 -113.875 477.75 C-114.21114319 478.33749023 -114.54728638 478.92498047 -114.89361572 479.53027344 C-121.0307701 490.26136207 -127.08568955 501.03680524 -133.109375 511.83203125 C-135.38151342 515.90257754 -137.67742223 519.9580382 -140 524 C-143.82349452 522.72550183 -144.1362998 521.51923536 -146.08203125 518.05859375 C-146.67693359 517.01251953 -147.27183594 515.96644531 -147.88476562 514.88867188 C-148.52091797 513.74978516 -149.15707031 512.61089844 -149.8125 511.4375 C-150.48399187 510.25136706 -151.15653267 509.06582739 -151.83007812 507.88085938 C-153.21612675 505.4416656 -154.59856985 503.00048046 -155.97900391 500.55810547 C-158.93410355 495.34182831 -161.96791008 490.17177621 -165 485 C-169.86227761 476.6832174 -174.69141627 468.34793438 -179.5 460 C-186.03713606 448.65299592 -192.6233041 437.33535159 -199.23095703 426.02929688 C-201.08208979 422.85943002 -202.93009404 419.68775615 -204.77734375 416.515625 C-205.4005249 415.44586426 -206.02370605 414.37610352 -206.66577148 413.27392578 C-207.84672282 411.24651858 -209.02725727 409.21886847 -210.20727539 407.19091797 C-210.74731201 406.26424316 -211.28734863 405.33756836 -211.84375 404.3828125 C-212.61912109 403.03944824 -212.61912109 403.03944824 -213.41015625 401.66894531 C-214.49976241 399.83977233 -215.63548048 398.03751472 -216.80859375 396.26074219 C-217.37707031 395.38836914 -217.94554687 394.51599609 -218.53125 393.6171875 C-219.05267578 392.84745605 -219.57410156 392.07772461 -220.11132812 391.28466797 C-221 389 -221 389 -220.34082031 386.55834961 C-219.89834961 385.71409424 -219.45587891 384.86983887 -219 384 C-218.54399414 383.12045654 -218.08798828 382.24091309 -217.61816406 381.3347168 C-217.08932617 380.38250244 -216.56048828 379.43028809 -216.015625 378.44921875 C-215.41741943 377.37075684 -214.81921387 376.29229492 -214.20288086 375.18115234 C-213.55215348 374.0164714 -212.90118697 372.85192404 -212.25 371.6875 C-211.91775421 371.09108704 -211.58550842 370.49467407 -211.24319458 369.88018799 C-206.01379583 360.49421576 -200.64991378 351.19291039 -195.20654297 341.92919922 C-190.39558262 333.72577344 -185.73579156 325.44346044 -181.10473633 317.13745117 C-176.01353572 308.00832814 -170.83948492 298.92889332 -165.63964844 289.86132812 C-162.84425074 284.98311773 -160.05629125 280.10065746 -157.26751709 275.21865845 C-155.558845 272.22763672 -153.84971026 269.23687939 -152.140625 266.24609375 C-151.44856552 265.03499474 -150.75650823 263.82389448 -150.06445312 262.61279297 C-143.37630208 250.90852865 -136.68815104 239.20426432 -130 227.5 C-129.67001007 226.92251511 -129.34002014 226.34503021 -129.00003052 225.75004578 C-128.33327089 224.58322151 -127.6665025 223.41640226 -126.99972534 222.24958801 C-125.33440912 219.33537354 -123.66924463 216.42107258 -122.00439453 213.5065918 C-118.98845394 208.22724336 -115.97137659 202.94856056 -112.94869995 197.67306519 C-111.2567216 194.71996984 -109.56562536 191.76637011 -107.875 188.8125 C-107.54244202 188.23149536 -107.20988403 187.65049072 -106.86724854 187.05187988 C-102.15330102 178.81214849 -97.49632005 170.54203158 -92.875 162.25 C-87.77785402 153.10554429 -82.55001254 144.04640908 -77.24951172 135.01855469 C-73.07710687 127.89414138 -69.01487056 120.71422053 -65 113.5 C-60.42427877 105.27800092 -55.76417631 97.11425786 -51 89 C-45.58549301 79.775649 -40.31369306 70.47985528 -35.10498047 61.13793945 C-30.03418378 52.04525632 -24.88064639 43.00228153 -19.70117188 33.97119141 C-17.71830599 30.50800573 -15.7416968 27.04128386 -13.765625 23.57421875 C-12.66493181 21.64405056 -11.56414087 19.71393815 -10.46331787 17.78384399 C-9.74247696 16.51953246 -9.02197275 15.2550289 -8.30181885 13.99032593 C-7.29335943 12.21954265 -6.28342792 10.44959799 -5.2734375 8.6796875 C-4.68997559 7.65601074 -4.10651367 6.63233398 -3.50537109 5.57763672 C-2.39796221 3.68142799 -1.21806429 1.82709643 0 0 Z " fill="#FFFFFF" transform="translate(696,253)"/>
<path d="M0 0 C147.37585257 0 147.37585257 0 165.25 5.6875 C166.06734619 5.94168701 166.88469238 6.19587402 167.72680664 6.45776367 C191.79945744 14.27605145 211.27677653 29.03054733 224 51 C224.49242187 51.84175781 224.98484375 52.68351562 225.4921875 53.55078125 C233.95153547 69.1821851 236.39984329 86.59968059 236.375 104.125 C236.37412384 104.80531281 236.37324768 105.48562561 236.37234497 106.18655396 C236.2539127 134.13452186 226.82807478 157.11628699 207 177 C190.80093313 193 190.80093313 193 184 193 C190.39682797 206.36179526 197.59666907 219.27761502 204.79039001 232.2202301 C207.2242161 236.59919862 209.64901423 240.98303245 212.06640625 245.37109375 C212.39738815 245.97187744 212.72837006 246.57266113 213.06938171 247.19165039 C213.73513113 248.40019446 214.40085692 249.60875155 215.06655884 250.81732178 C219.67307831 259.17836281 224.28678241 267.53541943 228.93014526 275.87606812 C230.51974112 278.73165798 232.10230728 281.59073514 233.67431641 284.45605469 C236.45931286 289.52036465 239.28384255 294.51497287 242.3828125 299.39453125 C242.90125732 300.24200928 243.41970215 301.0894873 243.95385742 301.96264648 C244.88209153 303.4719243 245.84385276 304.96164245 246.8527832 306.41821289 C252.42519564 315.66766668 250 323.25997393 250 335 C228.55 335 207.1 335 185 335 C171.24632353 309.78492647 171.24632353 309.78492647 165.6875 299.375 C165.05868955 298.19916751 164.42978011 297.02338796 163.80078125 295.84765625 C162.50792764 293.43086336 161.21547848 291.01385491 159.92333984 288.59667969 C156.16627601 281.56951277 152.40091703 274.5467844 148.63671875 267.5234375 C145.77467117 262.18254536 142.91398892 256.84095685 140.06039429 251.49554443 C138.75098033 249.04301188 137.44046506 246.59106855 136.12988281 244.13916016 C135.23527231 242.46443076 134.34220194 240.78887892 133.44921875 239.11328125 C128.40516632 229.67861046 123.198103 220.3565854 118 211 C101.17 210.67 84.34 210.34 67 210 C67 251.25 67 292.5 67 335 C44.89 335 22.78 335 0 335 C0 224.45 0 113.9 0 0 Z M67 60 C67 89.7 67 119.4 67 150 C80.179375 150.061875 80.179375 150.061875 93.625 150.125 C96.36893066 150.14320801 99.11286133 150.16141602 101.93994141 150.18017578 C104.16047979 150.18602721 106.38102036 150.19112122 108.6015625 150.1953125 C110.27545044 150.2106604 110.27545044 150.2106604 111.9831543 150.22631836 C127.56693665 150.22969659 142.93570541 148.62989863 155 138 C155.61746094 137.47535156 156.23492188 136.95070313 156.87109375 136.41015625 C164.91025626 129.0625346 168.4925527 119.46672453 169.21875 108.78125 C169.57851254 95.2301945 167.16700594 82.61990444 157.9375 72.3125 C145.59214192 60.86981327 128.41461463 59.50548775 112.41015625 59.70703125 C111.24577026 59.71005249 110.08138428 59.71307373 108.88171387 59.71618652 C104.60855001 59.73166445 100.33551433 59.77354473 96.0625 59.8125 C81.6765625 59.9053125 81.6765625 59.9053125 67 60 Z " fill="#FFFFFF" transform="translate(1188,436)"/>
<path d="M0 0 C8.68290426 7.93684548 15.49971443 16.21783905 21.26416016 26.46044922 C21.82619141 27.44529297 22.38822266 28.43013672 22.96728516 29.44482422 C33.35851028 48.86277016 34.26416016 67.36390582 34.26416016 89.46044922 C11.82416016 89.46044922 -10.61583984 89.46044922 -33.73583984 89.46044922 C-34.06583984 81.87044922 -34.39583984 74.28044922 -34.73583984 66.46044922 C-38.26334533 54.70209758 -41.81605194 45.40304813 -52.39599609 38.80029297 C-63.83280585 32.66751092 -75.37839174 30.95228808 -88.23583984 31.08544922 C-89.35603516 31.07384766 -90.47623047 31.06224609 -91.63037109 31.05029297 C-104.68609013 31.09546847 -119.33854555 33.6147399 -129.35693359 42.77685547 C-135.74797326 50.58007954 -138.26184329 59.49143147 -137.73583984 69.46044922 C-136.51063101 77.73638815 -133.05508502 83.20822569 -126.42724609 88.19873047 C-109.80508224 99.33780313 -90.74292863 104.731703 -71.80517578 110.49291992 C-41.8611224 119.61318856 -13.70175996 130.57235207 9.26416016 152.46044922 C10.18068359 153.26482422 10.18068359 153.26482422 11.11572266 154.08544922 C26.41642935 168.05869734 34.13146522 190.24356082 35.26416016 210.46044922 C35.3434375 211.83136719 35.3434375 211.83136719 35.42431641 213.22998047 C36.15904121 238.62590287 27.56537161 261.38357042 10.20458984 279.90527344 C3.6254153 286.71315872 -3.51550234 291.81327922 -11.73583984 296.46044922 C-12.83541016 297.08693359 -13.93498047 297.71341797 -15.06787109 298.35888672 C-51.79179854 317.9392811 -97.86063396 317.53207933 -136.91992188 305.8046875 C-167.00701235 296.16961206 -192.07638285 277.23480283 -206.95410156 249.20605469 C-216.18803658 231.08018225 -215.73583984 212.88213006 -215.73583984 192.46044922 C-193.62583984 192.46044922 -171.51583984 192.46044922 -148.73583984 192.46044922 C-148.24083984 201.37044922 -148.24083984 201.37044922 -147.73583984 210.46044922 C-145.85957154 222.86466743 -142.68667798 232.02452173 -132.48583984 239.83544922 C-113.21140473 252.67631948 -89.51948 254.82858822 -67.05224609 251.14794922 C-55.48024502 248.74904205 -44.84805278 244.72787702 -37.95458984 234.65576172 C-33.04084107 225.80471425 -32.63888875 216.55968551 -34.79833984 206.83544922 C-37.63441829 197.66975932 -43.49906793 192.9993739 -51.75195312 188.453125 C-65.45196927 181.29151555 -80.01280968 176.67438573 -94.73583984 172.14794922 C-133.92073426 160.09545942 -176.98035057 144.6080649 -197.73583984 106.46044922 C-207.64224276 86.94708125 -209.33162247 61.89843726 -202.99365234 40.95654297 C-193.28694717 13.9767258 -176.42996483 -4.77497344 -150.73583984 -17.53955078 C-103.35630416 -39.77148676 -39.91192257 -35.39867563 0 0 Z " fill="#FFFFFF" transform="translate(2712.73583984375,461.53955078125)"/>
<path d="M0 0 C72.93 0 145.86 0 221 0 C221 19.8 221 39.6 221 60 C170.51 60 120.02 60 68 60 C68 83.76 68 107.52 68 132 C111.89 132 155.78 132 201 132 C201 151.8 201 171.6 201 192 C157.11 192 113.22 192 68 192 C68 219.39 68 246.78 68 275 C119.15 275 170.3 275 223 275 C223 294.8 223 314.6 223 335 C149.41 335 75.82 335 0 335 C0 224.45 0 113.9 0 0 Z " fill="#FFFFFF" transform="translate(836,436)"/>
<path d="M0 0 C22.44 0 44.88 0 68 0 C68.01458252 7.05600586 68.02916504 14.11201172 68.04418945 21.38183594 C68.09300207 43.98794745 68.15642645 66.59400328 68.22898628 89.20004956 C68.24025373 92.71458347 68.25139229 96.22911777 68.26245117 99.74365234 C68.26465486 100.44329909 68.26685854 101.14294584 68.269129 101.863794 C68.30445009 113.17533026 68.32934346 124.48686646 68.35034702 135.79843733 C68.3721505 147.41506765 68.40546443 159.03162317 68.44870156 170.6481936 C68.47260991 177.16887349 68.49135441 183.68947475 68.49761391 190.21019745 C68.50367544 196.35301307 68.52371436 202.49562754 68.55427551 208.63836861 C68.56303853 210.88766901 68.56678194 213.13699571 68.56500816 215.38631248 C68.55547168 233.06631389 69.37989316 250.73704179 82.25390625 264.48046875 C95.85288995 276.31493107 114.57723569 279.1140342 132 278 C145.67488881 276.81793334 159.84378795 272.95809607 169.625 262.75 C182.58899661 245.92256069 182.44893347 226.32204965 182.43237305 206.04858398 C182.44140901 203.78994212 182.45174066 201.53130514 182.46325684 199.27267456 C182.49063753 193.19328337 182.50008544 187.1139857 182.50611091 181.03454089 C182.51554422 174.66174852 182.54175135 168.28902465 182.56611633 161.91627502 C182.60471556 151.23691577 182.63312462 140.55757922 182.65356445 129.87817383 C182.67462883 118.88726128 182.70195107 107.89639308 182.73754883 96.90551758 C182.73974765 96.22596189 182.74194648 95.5464062 182.74421193 94.84625792 C182.75528294 91.43650605 182.7664755 88.02675459 182.77772844 84.61700332 C182.87065661 56.41136463 182.93993768 28.20572888 183 0 C205.11 0 227.22 0 250 0 C250.06626834 29.88600307 250.12160983 59.77196533 250.15319599 89.65802213 C250.15694763 93.19486644 250.16083064 96.7317106 250.16479492 100.26855469 C250.16558185 100.9726088 250.16636878 101.67666291 250.16717956 102.402052 C250.18019569 113.76776953 250.20382836 125.13344104 250.23145839 136.49913137 C250.25961863 148.18128361 250.27619857 159.86341193 250.28226548 171.54559672 C250.28616217 178.09891872 250.29526274 184.65213673 250.31719017 191.20542526 C250.3377009 197.38596175 250.34380455 203.56635234 250.33932304 209.74691963 C250.34014176 212.00339745 250.34601975 214.25988065 250.35761642 216.51632881 C250.52617534 251.03582687 242.20236987 280.36027169 217.40576172 305.61279297 C192.2462649 330.4402089 156.58753103 339.44516882 122.1550293 339.23242188 C87.85012144 338.6357629 54.96342446 328.16689414 30 304 C4.00704719 276.8493151 -0.17654869 243.57116079 -0.11352539 207.52441406 C-0.11324297 205.25666302 -0.11340233 202.98891188 -0.1139679 200.72116089 C-0.11425371 194.59395965 -0.10839185 188.46677816 -0.10139394 182.33958149 C-0.09512448 175.92542433 -0.09455376 169.51126668 -0.09336853 163.09710693 C-0.09061786 152.34077551 -0.08438013 141.58445268 -0.07543945 130.828125 C-0.06624472 119.75455765 -0.05917399 108.68099227 -0.05493164 97.60742188 C-0.05466892 96.92356557 -0.05440619 96.23970927 -0.05413551 95.53513005 C-0.05283037 92.10404129 -0.05156668 88.67295251 -0.05032361 85.24186373 C-0.03997574 56.82790312 -0.02155084 28.41395445 0 0 Z " fill="#FFFFFF" transform="translate(2123,436)"/>
<path d="M0 0 C1.45299984 0.00056958 1.45299984 0.00056958 2.93535322 0.00115067 C4.04854746 -0.00084038 5.16174169 -0.00283143 6.30866909 -0.00488281 C7.54696876 -0.00196997 8.78526842 0.00094287 10.06109232 0.00394398 C11.36459994 0.00308955 12.66810757 0.00223513 14.01111543 0.00135481 C17.6459691 -0.00089261 21.28079357 0.00313449 24.91564351 0.00813287 C28.82909128 0.01243367 32.74253727 0.01099122 36.65598673 0.0102306 C43.44185969 0.00970513 50.22772306 0.01285435 57.01359361 0.01846844 C66.82493784 0.02658031 76.6362774 0.02919834 86.44762462 0.03045643 C102.36418822 0.03264744 118.2807467 0.03930887 134.19730753 0.04875904 C149.66280206 0.05793189 165.1282952 0.06501334 180.5937919 0.06926686 C181.54638077 0.06952958 182.49896963 0.0697923 183.48042483 0.07006299 C188.25907292 0.07136798 193.03772101 0.0726317 197.81636912 0.07387489 C237.48770438 0.08424904 277.15903394 0.10186869 316.83036417 0.1241985 C315.43268327 3.69859097 313.87907007 6.95838703 311.95145792 10.2804485 C311.3689628 11.28760914 310.78646768 12.29476979 310.1863212 13.33245045 C309.55323038 14.4187273 308.92013956 15.50500416 308.26786417 16.6241985 C307.59691661 17.78056972 306.92618559 18.93706662 306.25565714 20.09368092 C299.21269651 32.22988937 292.10814826 44.33033024 285.00077432 56.428886 C281.37799492 62.59611765 277.76037717 68.76637677 274.14286417 74.9366985 C273.6099476 75.84556309 273.6099476 75.84556309 273.06626505 76.77278858 C268.31056307 84.8838709 263.56511251 93.00086245 258.83036417 101.1241985 C253.80595 109.74295028 248.77483301 118.35775385 243.73368448 126.96672779 C242.97034491 128.2705777 242.20731937 129.57461151 241.44462198 130.87883717 C240.38137584 132.69681914 239.31696164 134.51411211 238.25223917 136.33122975 C237.63961221 137.3777068 237.02698526 138.42418385 236.39579386 139.50237232 C235.25820641 141.40763613 234.0612657 143.2778462 232.83036417 145.1241985 C230.55576593 145.49679399 230.55576593 145.49679399 227.6491794 145.49334198 C225.99207675 145.5023017 225.99207675 145.5023017 224.30149728 145.51144242 C223.0777833 145.5027039 221.85406932 145.49396537 220.5932731 145.48496205 C218.65510601 145.48880696 218.65510601 145.48880696 216.67778403 145.49272954 C213.07930545 145.49946347 209.48109283 145.48740229 205.88264817 145.47239536 C202.00670969 145.45948087 198.1307871 145.46382119 194.25483316 145.46610218 C187.53551656 145.46767783 180.81628711 145.45823824 174.09699243 145.44138867 C164.381947 145.41704264 154.66694386 145.40919791 144.95187123 145.40542469 C129.19113012 145.39885329 113.4304355 145.37887347 97.66971964 145.35051686 C82.35657097 145.32299409 67.04343491 145.3017518 51.73026651 145.28899342 C50.31521878 145.28781116 50.31521878 145.28781116 48.87158422 145.28660502 C44.13915905 145.28269001 39.4067338 145.27889886 34.67430848 145.27516931 C-4.60703885 145.24405196 -43.88833428 145.19119745 -83.16963583 145.1241985 C-81.81697611 141.68495903 -80.3492834 138.44495461 -78.58760458 135.194511 C-77.81815512 133.77247364 -77.81815512 133.77247364 -77.03316122 132.32170826 C-76.48007284 131.30778004 -75.92698447 130.29385182 -75.35713583 129.2491985 C-74.77891073 128.18564137 -74.20068564 127.12208424 -73.60493857 126.02629811 C-68.65572936 116.95308308 -63.58721372 107.95020028 -58.48213583 98.96404225 C-55.04090492 92.90612714 -51.63350693 86.82956327 -48.23213583 80.7491985 C-47.65157431 79.71174488 -47.07101279 78.67429127 -46.47285849 77.60539967 C-44.7047236 74.44521948 -42.93709249 71.28475806 -41.16963583 68.1241985 C-18.34540412 27.30999043 -18.34540412 27.30999043 -7.91963583 9.2491985 C-7.45339804 8.43982838 -6.98716025 7.63045826 -6.50679404 6.79656178 C-6.08100058 6.06163502 -5.65520712 5.32670826 -5.21651083 4.569511 C-4.8436495 3.92514088 -4.47078818 3.28077076 -4.08662802 2.61687428 C-2.56936516 0.14708058 -2.56936516 0.14708058 0 0 Z " fill="#FFFFFF" transform="translate(463.1696358323097,101.8758015036583)"/>
<path d="M0 0 C87.45 0 174.9 0 265 0 C265 19.8 265 39.6 265 60 C232.33 60 199.66 60 166 60 C166 150.75 166 241.5 166 335 C143.89 335 121.78 335 99 335 C99 244.25 99 153.5 99 60 C66.33 60 33.66 60 0 60 C0 40.2 0 20.4 0 0 Z " fill="#FFFFFF" transform="translate(1749,436)"/>
<path d="M0 0 C76.89 0 153.78 0 233 0 C231.52311947 3.69220133 230.09146659 6.76049445 228.12109375 10.15625 C227.53859863 11.16341064 226.95610352 12.17057129 226.35595703 13.20825195 C225.72286621 14.29452881 225.08977539 15.38080566 224.4375 16.5 C223.76655244 17.65637123 223.09582142 18.81286812 222.42529297 19.96948242 C215.38233235 32.10569087 208.27778409 44.20613175 201.17041016 56.3046875 C197.54763075 62.47191915 193.930013 68.64217827 190.3125 74.8125 C189.77958344 75.72136459 189.77958344 75.72136459 189.23590088 76.64859009 C184.48019891 84.7596724 179.73474834 92.87666395 175 101 C169.97558583 109.61875178 164.94446884 118.23355535 159.90332031 126.8425293 C159.13998075 128.1463792 158.3769552 129.45041301 157.61425781 130.75463867 C156.55101168 132.57262065 155.48659747 134.38991362 154.421875 136.20703125 C153.80924805 137.2535083 153.19662109 138.29998535 152.56542969 139.37817383 C151.42784224 141.28343764 150.23090153 143.15364771 149 145 C145.95488109 145.29407288 143.11322864 145.39084747 140.06576538 145.36076355 C139.12892304 145.36332682 138.1920807 145.3658901 137.2268492 145.36853105 C134.06821605 145.3734968 130.9100544 145.35693006 127.75146484 145.34057617 C125.49504101 145.3397305 123.23861635 145.34020386 120.98219299 145.34190369 C114.83987364 145.34276741 108.69772865 145.32508066 102.55544996 145.30418181 C96.14257653 145.28547776 89.72969948 145.28366953 83.31680298 145.28010559 C72.54775387 145.27182891 61.77878128 145.25306714 51.00976562 145.22631836 C39.91634442 145.1987924 28.82294064 145.17755168 17.72949219 145.16479492 C17.04599565 145.16400675 16.36249911 145.16321858 15.65829055 145.16240653 C12.22947961 145.15849149 8.80066855 145.15470035 5.3718574 145.15097082 C-23.08547263 145.11985729 -51.54273288 145.06678354 -80 145 C-78.7576327 141.17226365 -77.46234529 137.75166601 -75.453125 134.26171875 C-74.94531494 133.37242676 -74.43750488 132.48313477 -73.91430664 131.56689453 C-73.36508545 130.61669434 -72.81586426 129.66649414 -72.25 128.6875 C-71.06585554 126.61620015 -69.88228111 124.54457435 -68.69921875 122.47265625 C-68.08739746 121.40418457 -67.47557617 120.33571289 -66.84521484 119.23486328 C-63.88696394 114.04872614 -60.97467646 108.83710601 -58.0625 103.625 C-56.88677073 101.52340842 -55.7109892 99.42184607 -54.53515625 97.3203125 C-53.95137207 96.27649414 -53.36758789 95.23267578 -52.76611328 94.15722656 C-49.26405868 87.89671092 -45.75786247 81.63851388 -42.25244141 75.37988281 C-39.32187215 70.14724952 -36.39230956 64.91405778 -33.46484375 59.6796875 C-27.26681927 48.60016199 -21.0548712 37.52902826 -14.78881836 26.48779297 C-9.80262165 17.6888184 -4.9123598 8.84224764 0 0 Z " fill="#FFFFFF" transform="translate(166,102)"/>
<path d="M0 0 C2.51700557 2.27650694 3.96232817 4.53350295 5.49609375 7.55078125 C5.96547363 8.46448486 6.43485352 9.37818848 6.91845703 10.31958008 C7.41974121 11.30724365 7.92102539 12.29490723 8.4375 13.3125 C12.40834793 21.032391 16.43684205 28.7082783 20.625 36.3125 C25.8055141 45.74101827 30.85218888 55.2369234 35.875 64.75 C41.23261122 74.89608156 46.61129812 85.02879906 52.0625 95.125 C52.60575928 96.13554443 53.14901855 97.14608887 53.70874023 98.18725586 C56.60733604 103.57821287 59.52271378 108.9591714 62.46626282 114.32568359 C64.07292734 117.26153405 65.66766977 120.2037635 67.26046753 123.14715576 C68.03925719 124.57986705 68.82314474 126.00982007 69.61233521 127.43682861 C70.71183927 129.42625652 71.79319284 131.42458708 72.87109375 133.42578125 C73.49943115 134.57473877 74.12776855 135.72369629 74.77514648 136.9074707 C76.13106594 140.33091733 76.22773373 141.58512536 75 145 C73.85522461 147.32641602 73.85522461 147.32641602 72.40234375 149.75390625 C71.85650635 150.67606934 71.31066895 151.59823242 70.74829102 152.54833984 C70.15072998 153.5430127 69.55316895 154.53768555 68.9375 155.5625 C67.6523941 157.73233205 66.3685913 159.90293628 65.0859375 162.07421875 C64.41401367 163.20907715 63.74208984 164.34393555 63.04980469 165.51318359 C59.6581684 171.26438539 56.36507818 177.0724024 53.0625 182.875 C51.71159316 185.24516588 50.3598489 187.61485331 49.0078125 189.984375 C48.67392517 190.56961441 48.34003784 191.15485382 47.99603271 191.75782776 C41.42545962 203.26808163 34.77707938 214.73381631 28.14550781 226.20898438 C20.12269605 240.09380852 12.12992628 253.99505298 4.18969727 267.92724609 C3.23728149 269.597146 3.23728149 269.597146 2.265625 271.30078125 C1.42692871 272.77285034 1.42692871 272.77285034 0.57128906 274.2746582 C0.05276367 275.174021 -0.46576172 276.07338379 -1 277 C-1.52110352 277.94254639 -2.04220703 278.88509277 -2.57910156 279.85620117 C-3.04799805 280.56365479 -3.51689453 281.2711084 -4 282 C-4.66 282 -5.32 282 -6 282 C-6.4218457 281.23147705 -6.84369141 280.4629541 -7.27832031 279.67114258 C-14.61616735 266.31231932 -21.96530533 252.96483337 -29.56176758 239.75073242 C-33.40048368 233.06804412 -37.17803846 226.35256596 -40.9375 219.625 C-47.04796648 208.69171644 -53.19878835 197.78190203 -59.36914062 186.88232422 C-61.05494295 183.90289574 -62.73869468 180.92231669 -64.421875 177.94140625 C-65.26745972 176.44516724 -65.26745972 176.44516724 -66.13012695 174.91870117 C-67.23802557 172.95548102 -68.3433984 170.99083301 -69.44604492 169.0246582 C-71.7746551 164.88119174 -74.11811879 160.7627572 -76.62890625 156.7265625 C-77.01393311 156.0962915 -77.39895996 155.46602051 -77.7956543 154.81665039 C-78.78253172 153.21277925 -79.79246665 151.62315455 -80.8046875 150.03515625 C-82.39484215 145.99741061 -82.25161257 143.05616774 -81 139 C-79.17982034 134.86059556 -77.02179887 130.94280305 -74.8125 127 C-74.184646 125.85789062 -73.55679199 124.71578125 -72.90991211 123.5390625 C-67.05990511 112.92902298 -60.93802148 102.47626182 -54.78417969 92.04052734 C-51.71895076 86.81688735 -48.70618314 81.5631262 -45.6875 76.3125 C-34.62996581 57.1111333 -23.50656321 37.93642992 -12 19 C-11.53303711 18.22994629 -11.06607422 17.45989258 -10.58496094 16.66650391 C-9.05881776 14.15133814 -7.52997886 11.63783412 -6 9.125 C-5.51805176 8.33198486 -5.03610352 7.53896973 -4.53955078 6.72192383 C-4.09337402 5.99126709 -3.64719727 5.26061035 -3.1875 4.5078125 C-2.78917969 3.85441895 -2.39085937 3.20102539 -1.98046875 2.52783203 C-1 1 -1 1 0 0 Z " fill="#FFFFFF" transform="translate(782,105)"/>
<path d="M0 0 C22.11 0 44.22 0 67 0 C67 110.55 67 221.1 67 335 C44.89 335 22.78 335 0 335 C0 224.45 0 113.9 0 0 Z " fill="#FFFFFF" transform="translate(1563,436)"/>
<path d="M0 0 C59.4 0 118.8 0 180 0 C173.25394046 12.36777583 173.25394046 12.36777583 170.40625 16.953125 C169.77589844 17.97212891 169.14554688 18.99113281 168.49609375 20.04101562 C167.83738281 21.09998047 167.17867187 22.15894531 166.5 23.25 C165.07166531 25.55651814 163.64534489 27.86428051 162.21875 30.171875 C161.86167969 30.74881104 161.50460937 31.32574707 161.13671875 31.92016602 C157.72881803 37.42924274 154.36102847 42.9622501 151 48.5 C145.35598929 57.7916542 139.6647514 67.05355472 133.9609375 76.30859375 C129.6183608 83.35899338 125.2993951 90.42319566 121 97.5 C116.19915355 105.39758621 111.3864018 113.28777518 106.55029297 121.16381836 C105.53369431 122.8201038 104.51877136 124.47741741 103.50390625 126.13476562 C100.59465211 130.86750932 97.66605549 135.58824139 94.65625 140.2578125 C94.19025391 140.98371582 93.72425781 141.70961914 93.24414062 142.45751953 C92.83357422 142.96653809 92.42300781 143.47555664 92 144 C91.34 144 90.68 144 90 144 C88.93774414 142.61743164 88.93774414 142.61743164 87.78515625 140.66015625 C87.1358313 139.57395996 87.1358313 139.57395996 86.47338867 138.46582031 C86.00779541 137.67272461 85.54220215 136.87962891 85.0625 136.0625 C84.06175935 134.3908101 83.05910992 132.72026159 82.0546875 131.05078125 C81.54389648 130.20080566 81.03310547 129.35083008 80.50683594 128.47509766 C78.30262363 124.85450395 76.00507873 121.2987389 73.6875 117.75 C69.52252886 111.35827922 65.40249445 104.93998005 61.3125 98.5 C56.22375914 90.49006201 51.11869303 82.49083145 46 74.5 C39.22529487 63.92189457 32.47423855 53.32897778 25.73535156 42.72802734 C23.94772381 39.91782018 22.15774875 37.1091201 20.3671875 34.30078125 C17.44764912 29.72127452 14.5327553 25.13884974 11.62207031 20.55371094 C10.55504035 18.87382932 9.48671652 17.19476873 8.41699219 15.51660156 C6.98190411 13.2638363 5.55259992 11.00751549 4.125 8.75 C3.70186523 8.08822754 3.27873047 7.42645508 2.84277344 6.74462891 C0 2.22885306 0 2.22885306 0 0 Z " fill="#FFFFFF" transform="translate(380,249)"/>
<path d="M0 0 C53.79 0 107.58 0 163 0 C157.38047285 11.23905429 157.38047285 11.23905429 154.72265625 15.6015625 C154.13403809 16.57375732 153.54541992 17.54595215 152.93896484 18.54760742 C152.31973145 19.56314697 151.70049805 20.57868652 151.0625 21.625 C145.93108767 30.10690788 140.85502317 38.61577704 135.875 47.1875 C130.98436679 55.60116257 126.06012006 63.9934796 121.10058594 72.36669922 C118.03165255 77.55185273 114.97506761 82.74400508 111.93359375 87.9453125 C111.58245514 88.54577393 111.23131653 89.14623535 110.86953735 89.76489258 C110.51491425 90.37131592 110.16029114 90.97773926 109.79492188 91.60253906 C103.47448872 102.41020922 97.12242029 113.1975274 90.6875 123.9375 C90.07148926 124.96721924 89.45547852 125.99693848 88.82080078 127.05786133 C85.98285214 131.7812964 83.11523174 136.45406923 80 141 C76.85445281 138.10288658 74.82619894 135.2606814 72.78515625 131.51171875 C72.18823975 130.42487793 71.59132324 129.33803711 70.97631836 128.21826172 C70.50885696 127.35584869 70.50885696 127.35584869 70.0319519 126.47601318 C68.70845972 124.03434155 67.37002012 121.60097023 66.03266907 119.16687012 C65.34752844 117.919346 64.66319627 116.67137754 63.97966003 115.42297363 C60.8507824 109.71078647 57.65370699 104.03845085 54.4375 98.375 C49.91054922 90.38990387 45.41474275 82.38806937 40.9375 74.375 C36.1882167 65.87834237 31.39088546 57.41139236 26.54760742 48.96801758 C21.96213251 40.96191094 17.45593347 32.91213821 12.96044922 24.85522461 C10.44336241 20.34736386 7.92258718 15.84339251 5.3359375 11.375 C4.76407715 10.38681274 4.76407715 10.38681274 4.18066406 9.37866211 C3.21053528 7.70965471 2.23445862 6.04410831 1.2578125 4.37890625 C0 2 0 2 0 0 Z " fill="#FFFFFF" transform="translate(86,249)"/>
<path d="M0 0 C0.66 0 1.32 0 2 0 C2.3810791 0.66193359 2.7621582 1.32386719 3.15478516 2.00585938 C10.0740445 14.02101781 17.00389778 26.02936064 24 38 C32.02283648 51.73045656 39.95858336 65.510781 47.89550781 79.29101562 C49.78398492 82.5693106 51.67305348 85.84726366 53.5625 89.125 C54.17722168 90.19161865 54.79194336 91.2582373 55.42529297 92.35717773 C60.33433853 100.8663192 65.2808645 109.35328569 70.25805664 117.82275391 C73.96846817 124.15711213 77.48090512 130.54832606 81 137 C28.2 137 -24.6 137 -79 137 C-76.36 132.38 -73.72 127.76 -71 123 C-69.45190895 120.21148268 -67.90937072 117.42094899 -66.375 114.625 C-61.30124568 105.44039365 -56.00492126 96.39017911 -50.703125 87.3359375 C-46.96365385 80.94717965 -43.25880504 74.53880768 -39.5625 68.125 C-38.94101074 67.04686035 -38.31952148 65.9687207 -37.67919922 64.85791016 C-35.78565623 61.57221441 -33.89271763 58.28617126 -32 55 C-24.4434442 41.88016845 -16.87820389 28.76584564 -9.25 15.6875 C-8.66532959 14.68509277 -8.08065918 13.68268555 -7.47827148 12.64990234 C-4.42627631 7.42371619 -4.42627631 7.42371619 -3 5 C-2.48791992 4.07550049 -1.97583984 3.15100098 -1.44824219 2.19848633 C-0.97032227 1.47298584 -0.49240234 0.74748535 0 0 Z " fill="#FFFFFF" transform="translate(472,644)"/>
</svg>
